<svg xmlns="http://www.w3.org/2000/svg" xmlns:xlink="http://www.w3.org/1999/xlink" version="1.1" x="0px" y="0px" xml:space="preserve"><path xmlns="http://www.w3.org/2000/svg" d="M81 2.9C37.9 2.9 2.9 37.9 2.9 81s35 78.1 78.1 78.1 78.1-35 78.1-78.1S124.1 2.9 81 2.9m24.8 117.6h-.8c-2.8 0-5.4-1.6-6.7-4.2L83 85.2c-1.2-2.5-3.8-4.2-6.7-4.2h-8.1c-2.8 0-5.4-1.6-6.7-4.2l-12-24.7c-2.4-4.9 1.2-10.7 6.7-10.7h.8c2.8 0 5.4 1.6 6.7 4.2L79 76.8c1.2 2.5 3.8 4.2 6.7 4.2h8.1c2.8 0 5.4 1.6 6.7 4.2l12.1 24.7c2.2 4.9-1.4 10.6-6.8 10.6" style="fill-rule:evenodd;clip-rule:evenodd"/></svg>