<svg xmlns="http://www.w3.org/2000/svg" viewBox="0 0 180 45" fill="none">
  <path
    d="M6.58909 10.7749H11.2091C14.7 10.7749 14.7 9.13653 14.7 8.62864V8.55764C14.7 6.84829 12.9982 6.48786 11.5745 6.48786H6.58909V10.7749ZM6.58909 21.0692H12.7036C14.9727 21.0692 16.1182 20.3265 16.1182 18.8519V18.7809C16.1182 16.5637 13.3909 16.5637 12.5236 16.5637H6.58909V21.0692ZM12.7036 27.1201H0V0.43689H12.4145C17.8691 0.43689 21.3982 3.25485 21.3982 7.6074V7.67839C21.4366 8.73836 21.2067 9.79085 20.7298 10.738C20.253 11.6852 19.5448 12.4963 18.6709 13.0959C21.5236 14.4612 22.8164 16.4599 22.8164 19.4745V19.551C22.8164 24.3623 19.1291 27.1201 12.6982 27.1201"
    fill="#0081C6"/>
  <path
    d="M38.138 6.30765C34.0853 6.30765 31.0471 9.48605 31.0471 13.7075V13.7785C31.0471 18.0382 34.1289 21.2549 38.2198 21.2549C42.3107 21.2549 45.3107 18.071 45.3107 13.8495V13.7785C45.3107 9.51881 42.2235 6.30765 38.138 6.30765ZM38.138 27.557C30.1035 27.557 24.0435 21.6644 24.0435 13.8495V13.7785C24.0435 6.05097 30.2671 0 38.2253 0C46.2598 0 52.3144 5.8926 52.3144 13.7075V13.7785C52.3144 21.5061 46.0907 27.557 38.1325 27.557"
    fill="#0081C6"/>
  <path
    d="M61.7398 12.8556H66.8671C69.2125 12.8556 70.6143 11.7142 70.6143 9.79733V9.72633C70.6143 7.1705 68.5198 6.63531 66.758 6.63531H61.7398V12.8556ZM78.6871 27.1201H70.7616L65.3071 18.9284H61.7507V27.1201H55.0034V0.43689H67.2325C73.5161 0.43689 77.4216 3.88288 77.4216 9.43142V9.50788C77.4216 13.3307 75.5889 16.1924 72.2452 17.6996L78.6871 27.1201Z"
    fill="#0081C6"/>
  <path d="M128.798 27.1201H109.336V0.43689H116.067V20.9709H128.798V27.1201Z" fill="#0081C6"/>
  <path
    d="M151.773 27.1201H131.214V0.43689H151.593V6.56432H137.913V10.6274H149.951V16.7494H137.913V20.9982H151.773V27.1201Z"
    fill="#0081C6"/>
  <path
    d="M180 27.1201H172.075L166.647 18.8137L161.193 27.1201H153.447L162.725 13.5601L153.818 0.43689H161.738L166.8 8.26274L171.895 0.43689H179.64L170.722 13.4891L180 27.1201Z"
    fill="#0081C6"/>
  <path
    d="M100.674 27.1201H107.765L96.4199 0.420502H90.3817L79.0363 27.1201H85.9527L78.6708 44.9181C78.6654 44.9326 78.6657 44.9486 78.6718 44.9629C78.6779 44.9771 78.6893 44.9885 78.7036 44.9945C78.7152 45.0038 78.7296 45.0089 78.7445 45.0089C78.7593 45.0089 78.7738 45.0038 78.7854 44.9945L95.6945 21.02H88.5108L93.3381 9.07645L100.674 27.1201Z"
    fill="#0081C6"/>
</svg>
