<svg xmlns="http://www.w3.org/2000/svg" viewBox="0 0 197 72">
  <g fill="black" color="#362CFF">
    <path d="M61.3672 20.152H63.8619V12.7881H71.4117V20.152H75.1702V24.6394H71.4774V31.428C71.4774 36.1455 73.5946 37.1153 75.3343 37.1153L76.6309 37.1646V43.904H73.9393C68.3097 43.904 63.9276 40.5836 63.9276 33.7786L63.8783 24.623H61.3836V20.152H61.3672Z"/>
    <path d="M48.3511 16.7492C41.5563 16.7492 39.4391 21.4667 38.8646 26.6281H38.4872V9.63184H31.2656V43.8873H38.8646V30.4744C38.8646 27.4499 40.0463 22.2064 45.0029 22.2064C49.1061 22.2064 50.616 24.7542 50.616 29.9484V43.8873H58.2151V29.9484C58.1986 21.5818 56.3112 16.7492 48.3511 16.7492Z"/>
    <path d="M76.6303 50.1012V56.8569H73.9222C68.6209 56.8569 64.4193 53.9147 63.9434 47.915H72.0676C72.8226 49.6245 74.152 50.0519 75.3173 50.0519L76.6303 50.1012Z" fill="currentColor"/>
    <path d="M81.2754 14.3496H88.8745V15.155H81.2754V14.3496Z"/>
    <path d="M95.291 17.4238H102.89V43.8715H95.291V17.4238Z"/>
    <path d="M109.291 17.4238H116.89V43.8715H109.291V17.4238Z"/>
    <path d="M139.869 16.75C133.074 16.75 130.957 21.4675 130.382 26.6288H130.005L129.677 17.4239H122.783V43.888H130.382V30.4587C130.382 27.4343 131.564 22.1908 136.504 22.1908C140.607 22.1908 142.117 24.7385 142.117 29.9327V43.8716H149.716V29.9327C149.716 21.5826 147.829 16.75 139.869 16.75Z"/>
    <path d="M170.608 38.1017H161.17C159.053 38.1017 158.052 37.6743 158.052 36.7374C158.052 35.9813 158.856 35.5046 159.611 35.1759C161.597 36.0306 164.043 36.458 166.882 36.458C174.908 36.458 179.996 32.7267 179.996 26.6778C179.996 21.8616 176.779 18.3112 171.182 17.177H171.313V16.8975C175.745 16.8975 180.176 16.4209 180.176 12.4102H173.857C173.857 17.4564 169.754 16.7496 166.964 16.7496H166.866C158.659 16.7496 153.752 20.711 153.752 26.6778C153.752 30.3104 155.492 33.1048 158.709 34.7485V35.0279C156.673 35.4553 154.031 36.31 154.031 38.8085C154.031 41.0275 156.148 42.1617 159.743 42.4083V42.6877L153.982 43.4931C152.849 48.8353 158.265 52.3364 167.473 52.3364C177.419 52.3364 181.243 49.164 181.243 44.7259C181.194 40.7974 178.551 38.1181 170.575 38.1181L170.608 38.1017ZM166.866 22.3383C170.115 22.3383 172.577 23.7519 172.577 26.6778C172.577 29.6529 170.033 31.1651 166.866 31.1651C163.747 31.1651 161.105 29.6529 161.105 26.6778C161.105 23.7519 163.698 22.3383 166.866 22.3383ZM167.801 47.849C163.32 47.849 160.58 46.0081 161.811 42.4576H168.179C171.297 42.4576 173.414 42.8357 173.414 44.8246C173.463 46.8957 171.297 47.849 167.801 47.849Z"/>
    <path d="M14.7385 37.6575C11.1277 37.6575 7.27077 35.3398 7.27077 30.7538C7.27077 26.3815 10.5533 23.6364 14.7385 23.6364C19.3997 23.6364 21.0245 26.2006 22.0092 28.2224L28.2788 24.7049C25.899 19.3627 20.9753 16.667 15.0011 16.667C7.69749 16.667 0 21.2037 0 30.6387C0 39.9258 7.50054 44.4461 14.64 44.4461C20.3516 44.4461 25.6364 41.9147 28.2132 36.7205L21.9764 33.1536C21.0409 34.7316 19.3668 37.6575 14.7385 37.6575Z"/>
    <path d="M31.2832 49.0489H38.8822V47.8818H31.2832V49.0489ZM50.6172 51.1529H58.2162V47.8818H50.6172V51.1529Z" fill="currentColor"/>
    <path d="M81.2754 47.8818H88.8745V51.1529H81.2754V47.8818Z" fill="currentColor"/>
    <path d="M95.291 47.8818H102.89V57.1032H95.291V47.8818Z" fill="currentColor"/>
    <path d="M109.291 51.1855H116.89V54.4566H109.291V51.1855Z" fill="currentColor"/>
    <path d="M122.783 51.1529H130.382V47.8818H122.783V51.1529ZM142.134 49.0818H149.733V47.8983H142.134V49.0818Z" fill="currentColor"/>
    <path d="M95.291 12.5254H102.89V15.1554H95.291V12.5254Z"/>
    <path d="M95.291 0H102.89V1.4958H95.291V0Z" fill="currentColor"/>
    <path d="M95.291 69.6289H102.89V71.1083H95.291V69.6289Z" fill="currentColor"/>
    <path d="M95.291 59.5527H102.89V61.0321H95.291V59.5527Z" fill="currentColor"/>
    <path d="M95.291 3.56738H102.89V9.66563H95.291V3.56738Z"/>
    <path d="M95.291 63.6777H102.89V66.883H95.291V63.6777Z" fill="currentColor"/>
    <path d="M109.291 10.8154H116.89V15.1549H109.291V10.8154Z"/>
    <path d="M109.291 6.65723H116.89V7.80784H109.291V6.65723Z" fill="currentColor"/>
    <path d="M109.291 47.8818V49.0325H116.89V47.8818" fill="currentColor"/>
    <path d="M48.351 8.76074C44.5104 8.76074 42.1634 10.273 40.752 12.5085H56.4423C54.998 10.0757 52.5033 8.76074 48.351 8.76074Z" fill="currentColor"/>
    <path d="M139.869 8.76074C136.028 8.76074 133.681 10.273 132.27 12.5085H147.96C146.516 10.0757 144.021 8.76074 139.869 8.76074ZM122.783 9.41824V12.5085H129.775L129.66 9.43467L122.783 9.41824Z" fill="currentColor"/>
    <path d="M15.001 8.67871C11.1604 8.67871 7.20502 9.92795 4.31641 12.4922H25.3573C22.7313 9.96082 19.1205 8.67871 15.001 8.67871Z" fill="currentColor"/>
    <path d="M63.8457 7.85742H71.4447V9.45184H63.8457V7.85742Z" fill="currentColor"/>
    <path d="M81.2754 17.4238H88.8745V43.8715H81.2754V17.4238Z"/>
    <path d="M81.2754 7.84082H88.8745V11.5721H81.2754V7.84082Z" fill="currentColor"/>
    <path d="M81.2754 53.1416H88.8745V53.947H81.2754V53.1416Z" fill="currentColor"/>
    <path d="M189.697 12.4268H197.001V38.2498H189.697V12.4268Z"/>
    <path d="M189.697 41.7676H197.001V43.8715H189.697V41.7676Z"/>
  </g>
</svg>
