<svg version="1.1" ifill="#003b5c" d="DESIGN" xmlns="http://www.w3.org/2000/svg" xmlns:xlink="http://www.w3.org/1999/xlink" x="0px" y="0px" viewBox="0 0 45 58" style="enable-background:new 0 0 45 58;" xml:space="preserve">
<path fill="#003b5c" d="M19.3,20.2h6c1.6,0,3.2,0.4,4.6,1.2c-0.4-2.3-2.3-3.9-4.6-3.9h-6c-1.6,0-3.2-0.4-4.6-1.2
	C15.1,18.6,17,20.2,19.3,20.2z"></path>
<path fill="#003b5c" d="M19.3,26.9h6c2.3,0,4.3-1.7,4.6-3.9c-1.4,0.8-3,1.2-4.6,1.2h-6c-1.6,0-3.2-0.4-4.6-1.2
	C15.1,25.3,17,26.9,19.3,26.9z"></path>
<path fill="#003b5c" d="M25.3,13.5c1.6,0,3.2,0.4,4.6,1.2c-0.4-2.3-2.3-3.9-4.6-3.9h-6c-2.3,0-4.3,1.7-4.6,3.9c1.4-0.8,3-1.2,4.6-1.2
	H25.3z"></path>
<path fill="#003b5c" d="M25.8,37.6c4.7,0,9.2-1.7,12.6-4.9c-4.1,1.4-8.3,2.2-12.6,2.2h-6.9c-4.3,0-8.6-0.7-12.6-2.2
	c3.5,3.1,8,4.9,12.6,4.9H25.8z"></path>
<path fill="#003b5c" d="M25.8,2.7c4.3,0,8.6,0.7,12.6,2.2C34.9,1.7,30.4,0,25.8,0h-6.9C14.2,0,9.7,1.7,6.2,4.9
	c4.1-1.4,8.3-2.2,12.6-2.2H25.8z"></path>
<path fill="#003b5c" d="M25.3,5.5h-6c-3.1,0-6.1,1.6-7.8,4.2c2.3-1,4.8-1.5,7.4-1.5h6.9c2.5,0,5,0.5,7.4,1.5C31.4,7,28.4,5.5,25.3,5.5z
	"></path>
<path fill="#003b5c" d="M19.3,32.3h6c3.1,0,6.1-1.6,7.8-4.2c-2.3,1-4.8,1.5-7.4,1.5h-6.9c-2.5,0-5-0.5-7.4-1.5
	C13.2,30.8,16.2,32.3,19.3,32.3z"></path>
<path fill="#003b5c" d="M5.7,50.2c-1.9-0.7-3.2-1-3.2-2.2c0-1,1-1.5,2-1.5c1.6,0,3.1,1.4,4.4,3H9v-3c-1.3-0.6-2.8-0.9-4.2-0.9
	C2,45.5,0,46.9,0,49.1c0,2,1.5,3,4,3.9c2,0.7,3.1,1.1,3.1,2.3c-0.1,1-0.9,1.8-1.9,1.7c0,0-0.1,0-0.1,0c-1.8,0-3.4-1.8-4.7-3.2H0.2
	v3.1c1.5,0.7,3,1,4.7,1.1c2.4,0,4.6-1.2,4.6-3.9C9.5,52.3,8.4,51.1,5.7,50.2z"></path>
<path fill="#003b5c" d="M21.2,54.8v-5.4c0-2.3-1.5-3.8-4.4-3.8c-1.8,0.1-3.5,0.4-5.2,0.9v3h0.1c0.4-0.6,3.4-3,4.9-3
	c0.9,0,1.6,1,1.6,2.7v6c-0.5,0.6-1.2,1-2,1c-1.3,0-2.3-1-2.3-2.3c0,0,0-0.1,0-0.1c0-1.5,1.2-2.8,3.6-2.5l0-0.1
	c-1-0.8-2.3-1.1-3.6-0.7c-2,0.5-3.2,1.8-3.2,3.7c0,2,1.6,3.7,3.7,3.7c0.1,0,0.2,0,0.3,0c1.5,0,2.8-0.7,3.6-1.9
	c0.2,1.1,1.2,1.9,2.3,1.8c1,0.1,2-0.6,2.2-1.6v-0.1C21.7,56.6,21.2,56.1,21.2,54.8z"></path>
<path fill="#003b5c" d="M34.5,45.7h-3.6v0.1c0.3,1.2,0.5,2.3,0.6,3.5v4.8c0,0.5,0,1,0.1,1.5c0.1,0.7,0.2,1.4,0.5,2.1h3v-0.1
	c-0.3-1.2-0.5-2.3-0.6-3.5L34.5,45.7z"></path>
<path fill="#003b5c" d="M29,56c-1.2,0.1-2.2-0.9-2.3-2.1c0-0.1,0-0.3,0-0.4v-7.8h-3.6v0.1c0.3,1.2,0.5,2.3,0.6,3.5v4.6
	c-0.2,2.1,1.3,3.9,3.4,4.1c0.2,0,0.4,0,0.6,0c1.4,0,2.6-0.9,3-2.2l-0.1-0.1C30.1,55.8,29.5,56,29,56z"></path>
<path fill="#003b5c" d="M43.6,45.4c-2.2,0-2.9,2.5-2.9,2.5l0.1,0.1c1.3-0.5,2.7-0.1,3.6,0.9h0.1l0.5-3.3C44.6,45.5,44.1,45.4,43.6,45.4
	z"></path>
<path fill="#003b5c" d="M40,45.7h-3.6v0.1c0.3,1.2,0.5,2.3,0.6,3.5v4.8c0,1.2-0.2,2.4-0.6,3.5v0.1h4.1v-0.1c-0.3-1.2-0.5-2.3-0.6-3.5
	V45.7z"></path>
</svg>