<?xml version="1.0" encoding="UTF-8"?><svg id="Calque_1" xmlns="http://www.w3.org/2000/svg" viewBox="0 0 212.6 177.06"><defs><style>.cls-1{fill:#ffda41;}.cls-2,.cls-3{fill:#41ad4c;}.cls-2,.cls-4{fill-rule:evenodd;}</style></defs><path class="cls-4" d="m16.55,171.11h181.29c4.73,0,8.57-3.84,8.57-8.57v-77.97c0-3.54-1.08-6.99-3.1-9.89C190.53,56.33,150.61,5.96,107.06,5.96S23.77,56.28,11.06,74.59c-2.01,2.9-3.08,6.34-3.08,9.87v78.08c0,4.73,3.84,8.57,8.57,8.57Z"/><g><polygon class="cls-2" points="150.74 102.54 150.74 141.32 143.04 141.32 127.32 114.21 127.32 141.32 119.87 141.32 119.87 102.54 128.23 102.54 143.29 128.48 143.29 102.54 150.74 102.54"/><polygon class="cls-2" points="115.74 102.54 115.74 108.71 102.36 108.71 102.36 117.95 114.51 117.95 114.51 124.05 102.45 124.05 102.45 134.98 115.92 134.98 115.92 141.32 94.99 141.32 94.99 102.54 115.74 102.54"/><path class="cls-3" d="m62.38,141.32h0,0Zm-23.63-17.27l3.91-9.77,4.02,9.77h-7.93Zm.85-21.51l-16.38,38.78h8.61l3.98-9.94h13.88l4.09,9.94h8.61l-16.8-38.78h-5.99Z"/><polygon class="cls-2" points="92.57 141.32 83.97 141.32 71.21 123.68 71.21 141.32 63.78 141.32 63.78 102.54 71.19 102.54 71.19 118.45 83.08 102.54 91.89 102.54 77.76 120.84 92.57 141.32"/><path class="cls-2" d="m175.53,124.19l-4.01-9.76-3.91,9.76h7.92Zm15.64,17.13h-8.61l-4.08-9.94h-13.75l-3.98,9.94h-8.61l16.37-38.78h5.87l16.79,38.78Z"/></g><g><polygon class="cls-2" points="83.11 100 87.07 100 68.55 81.5 110.14 39.78 151.5 81.49 133.36 100 137.3 100 155.38 81.58 110.5 36.16 65.01 81.78 83.11 100"/><path class="cls-1" d="m109.08,44.05l-36.44,36.55c4.36,9.46,13.92,16.04,25.02,16.04,15.21,0,27.53-12.33,27.53-27.53,0-11.13-6.61-20.71-16.11-25.05Z"/><path class="cls-1" d="m101.58,41.85c-1.28-.18-2.59-.28-3.92-.28-15.21,0-27.53,12.33-27.53,27.53,0,1.36.1,2.7.29,4.01l31.16-31.26Z"/></g></svg>