<svg viewBox="0 0 178 80" fill="none" xmlns="http://www.w3.org/2000/svg"><mask id="a" style="mask-type:alpha" maskUnits="userSpaceOnUse" x="0" y="11" width="160" height="46"><path fill-rule="evenodd" clip-rule="evenodd" d="M0 11.335h159.543v44.693H0V11.335z" fill="#fff"/></mask><g mask="url(#a)"><path fill-rule="evenodd" clip-rule="evenodd" d="M159.543 33.679c0 12.342-10.319 22.35-23.049 22.35H23.049C10.323 56.028 0 46.02 0 33.678c0-12.34 10.323-22.344 23.049-22.344h113.445c12.73 0 23.049 10.003 23.049 22.344" fill="#009D59"/></g><path fill-rule="evenodd" clip-rule="evenodd" d="M103.005 38.31a4.75 4.75 0 110-9.499 4.753 4.753 0 014.755 4.75 4.752 4.752 0 01-4.755 4.748m0-17.347c-6.967 0-12.614 5.64-12.614 12.598 0 6.959 5.647 12.599 12.614 12.599 6.967 0 12.614-5.64 12.614-12.599 0-6.958-5.647-12.598-12.614-12.598M88.423 26.819a12.608 12.608 0 00-10.659-5.857c-6.968 0-12.616 5.64-12.616 12.598 0 6.96 5.648 12.6 12.616 12.6a12.57 12.57 0 008.48-3.272l.005.008L88.97 45.9l.006.004V34.181H78.344l.007.006 2.617 2.882a4.737 4.737 0 01-3.204 1.24 4.753 4.753 0 01-4.756-4.75c0-2.62 2.13-4.749 4.756-4.749 1.702 0 3.199.896 4.037 2.239l-.007.005 6.63-4.24v.004z" fill="#FEFEFE"/><path fill-rule="evenodd" clip-rule="evenodd" d="M46.406 1.777h16.386l-8.199 17.29-8.187-17.29z" fill="#E42713"/><path clip-rule="evenodd" d="M46.406 1.777h16.386l-8.199 17.29-8.187-17.29z" stroke="#FEFEFE" stroke-width=".842"/><path fill-rule="evenodd" clip-rule="evenodd" d="M26.292 21.773h-9.523L26.812 45.62h6.465l9.698-22.88 6.98 11.822V45.62h8.92V34.536l8.339-12.758h-9.7l-2.904 5.029-2.91-5.034H33.659L30.17 30.49l-3.878-8.717zM118.766 21.728v23.837h7.762v-8.607l5.426 8.713h9.312V21.719h-7.567v9.422l-6.144-9.413h-8.789z" fill="#FEFEFE"/><path fill-rule="evenodd" clip-rule="evenodd" d="M161.643 68.323h-1.636l.363-1.225h1.273c0-.093-.006-.193-.012-.29a4.022 4.022 0 01-.011-.255c0-2.995 1.227-4.333 3.954-4.333h.386l.364 1.157a3.47 3.47 0 01-.245-.012c-.074-.005-.145-.01-.21-.01-2.158 0-2.976.882-2.976 3.13 0 .182 0 .386.023.613h2.953v1.225h-2.953v10.075l-1.273.16V68.323zm-4.294-1.384l-1.295.16V78.58l1.295-.18V66.94zm.318-3.517l-.977-1.043-.955 1.157.955 1.044.977-1.158zm-47.026-1.042l-1.296.18v16.02l1.296-.181v-16.02zM88.693 75.607L82.785 62.65l-1.363.203 7.25 15.886 7.45-15.818-1.317-.338-6.112 13.023zm12.883 1.838c1.749 0 2.931-1.2 2.931-2.928 0-1.699-1.182-2.927-2.908-2.927-1.842 0-3.023 1.318-3.023 2.927 0 1.612 1.204 2.928 3 2.928zm-.161 1.225a4.14 4.14 0 01-4.156-4.153 4.157 4.157 0 014.156-4.152c1.138 0 2.229.454 3.044 1.318v-1.43c0-1.543-.747-2.294-2.43-2.294-1.046 0-2.181.319-3.544.887l.498-1.475c1.139-.386 2.206-.567 3.184-.567 2.521 0 3.567 1.155 3.567 3.56v8.034l-1.207.183v-1.315c-.883.928-1.906 1.404-3.112 1.404zm16.744.024c-2.43 0-3.974-1.52-3.974-4.356v-7.24l1.27-.159v6.764c0 2.609.979 3.925 2.999 3.925 1.75 0 3.409-1.477 3.409-3.473v-7.057l1.273-.159V78.4l-1.273.16v-1.93c-.956 1.384-2.182 2.065-3.704 2.065zm13.858-10.597c1.25 0 2.228.408 2.863 1.18l-7.475 4.448c-.045-.454-.045-.794-.045-.998 0-2.656 2.113-4.63 4.657-4.63zm-5.998 4.651c0 3.337 2.523 5.923 5.998 5.923 1.614 0 3.046-.543 4.5-1.61v-1.637c-1.592 1.25-2.931 1.931-4.5 1.931-1.794 0-3.316-.907-4.158-2.541l8.884-5.242c-.908-1.77-2.566-2.724-4.726-2.724-3.407 0-5.998 2.52-5.998 5.9zm20.789-9.894l1.386-.159v14.343h5.52l-.478 1.361h-6.428V62.855zm26.466 5.243c1.251 0 2.229.408 2.864 1.18l-7.474 4.448c-.046-.454-.046-.794-.046-.998 0-2.656 2.113-4.63 4.656-4.63zm-5.997 4.651c0 3.337 2.521 5.923 5.997 5.923 1.613 0 3.047-.543 4.501-1.61v-1.637c-1.593 1.25-2.931 1.931-4.501 1.931-1.795 0-3.315-.907-4.155-2.541l8.882-5.242c-.91-1.77-2.566-2.724-4.727-2.724-3.408 0-5.997 2.52-5.997 5.9z" fill="#878786"/></svg>