<?xml version="1.0" encoding="utf-8"?><!--Generator: Adobe Illustrator 24.3.0, SVG Export Plug-In . SVG Version: 6.00 Build 0)--><svg version="1.1" id="Calque_1" xmlns="http://www.w3.org/2000/svg" xmlns:xlink="http://www.w3.org/1999/xlink" x="0px" y="0px" viewBox="0 0 251 59" style="enable-background:new 0 0 251 59" xml:space="preserve"><style type="text/css">.st0{fill:#21737F;}</style><g><path class="st0" d="M52.2,57.5C53,57.7,54,58,55,58c1.1,0,2.2-0.6,2.2-1.9c0-3-5.1-2-5.1-5.6c0-1.7,1.3-2.7,3.2-2.7
		c0.9,0,1.8,0.2,2.7,0.5l-0.3,1c-0.8-0.3-1.6-0.5-2.4-0.5c-1.3,0-2.1,0.6-2.1,1.7c0,2.7,5.1,1.8,5.1,5.6c0,2-1.5,3-3.3,3
		c-1.2,0-2.3-0.3-3-0.5L52.2,57.5z"/><path class="st0" d="M61.5,53.6c0-2.1,1.3-3.2,2.9-3.2c1.1,0,2,0.7,2.4,1.8c0.4-1.1,1.3-1.8,2.4-1.8c1.6,0,2.9,1.1,2.9,3.2v5.2H71
		v-5.1c0-1.6-0.8-2.4-1.8-2.4c-1.1,0-1.8,0.9-1.8,2.6v4.8h-1V54c0-1.7-0.8-2.6-1.9-2.6c-1.1,0-1.8,0.8-1.8,2.4v5.1h-1.1V53.6z"/><path class="st0" d="M78,54h1.9v-0.6c0-1.3-0.6-2-1.9-2c-0.7,0-1.4,0.2-2.1,0.4l-0.2-0.9c0.7-0.2,1.5-0.4,2.3-0.4
		c1.8,0,2.9,1.1,2.9,3v3c0,1.4-1.3,2.6-2.9,2.6c-1.7,0-2.9-1.2-2.9-2.6C75.1,54.9,76.3,54,78,54 M78.1,58c1.1,0,1.8-0.7,1.8-1.6
		v-1.5H78c-1.2,0-1.8,0.6-1.8,1.5C76.2,57.3,77,58,78.1,58"/><path class="st0" d="M84.3,53.4c0-1.8,1.3-3,3-3c0.3,0,0.8,0.1,0.9,0.1l-0.2,1c-0.1,0-0.5-0.1-0.7-0.1c-1.2,0-2,0.8-2,2v5.4h-1.1
		V53.4z"/><polygon class="st0" points="91.3,51.4 90.2,51.4 89.9,50.6 91.3,50.6 91.3,48.2 92.4,47.9 92.4,50.6 94.1,50.6 94.1,51.4 
		92.4,51.4 92.4,58.8 91.3,58.8 	"/><polygon class="st0" points="101.9,47.9 107.5,47.9 107.5,48.9 103,48.9 103,52.8 106.8,52.8 106.7,53.8 103,53.8 103,58.8 
		101.9,58.8 	"/><path class="st0" d="M110.2,53.6c0-2.1,1.4-3.3,3.1-3.3c1.7,0,3.1,1.2,3.1,3V55h-5.1v0.7c0,1.6,0.9,2.4,2.2,2.4
		c0.8,0,1.5-0.2,2.2-0.4l0.2,1c-0.8,0.3-1.6,0.4-2.4,0.4c-1.9,0-3.2-1.1-3.2-3.3V53.6z M115.2,54v-0.7c0-1.2-0.8-2-2-2
		c-1.2,0-2,0.7-2,2.3V54H115.2z"/><path class="st0" d="M119.3,53.6c0-2.1,1.4-3.3,3.1-3.3c1.7,0,3.1,1.2,3.1,3V55h-5.1v0.7c0,1.6,0.9,2.4,2.2,2.4
		c0.8,0,1.5-0.2,2.2-0.4l0.2,1c-0.8,0.3-1.6,0.4-2.4,0.4c-1.9,0-3.2-1.1-3.2-3.3V53.6z M124.4,54v-0.7c0-1.2-0.8-2-2-2
		c-1.2,0-2,0.7-2,2.3V54H124.4z"/><path class="st0" d="M128.4,53.8c0-2.4,1.4-3.4,3.1-3.4c0.9,0,1.6,0.4,2.1,0.7v-4h1.1v8.5c0,2.2-1.4,3.4-3.1,3.4
		c-1.7,0-3.1-1.2-3.1-3.4V53.8z M131.6,58c1.2,0,2.1-0.8,2.1-2.5v-3.4c-0.7-0.4-1.3-0.7-2-0.7c-1.1,0-2.1,0.6-2.1,2.5v1.6
		C129.5,57.2,130.4,58,131.6,58"/><path class="st0" d="M158.3,52c0-2.9,1.7-4.3,4.1-4.3c1.2,0,2,0.2,3,0.5l-0.2,1c-0.8-0.2-1.7-0.5-2.8-0.5c-1.8,0-3,1.1-3,3.3v2.6
		c0,2.3,1.2,3.3,3,3.3c0.9,0,1.5-0.2,2.2-0.3V54h-1.2v-0.9h2.3v5.4c-0.9,0.3-2.1,0.6-3.3,0.6c-2.3,0-4.1-1.4-4.1-4.3V52z"/><path class="st0" d="M168.9,54c0-2.5,1.4-3.6,3.2-3.6c1.9,0,3.2,1.1,3.2,3.6v1.4c0,2.5-1.4,3.6-3.2,3.6c-1.8,0-3.2-1.1-3.2-3.6V54z
		 M172.1,58c1.2,0,2.2-0.7,2.2-2.7v-1.2c0-2.1-0.9-2.7-2.2-2.7c-1.2,0-2.2,0.6-2.2,2.7v1.2C169.9,57.4,170.9,58,172.1,58"/><path class="st0" d="M178.5,54c0-2.5,1.4-3.6,3.2-3.6c1.9,0,3.2,1.1,3.2,3.6v1.4c0,2.5-1.4,3.6-3.2,3.6c-1.8,0-3.2-1.1-3.2-3.6V54z
		 M181.7,58c1.2,0,2.2-0.7,2.2-2.7v-1.2c0-2.1-0.9-2.7-2.2-2.7c-1.2,0-2.2,0.6-2.2,2.7v1.2C179.5,57.4,180.4,58,181.7,58"/><path class="st0" d="M188,53.8c0-2.4,1.4-3.4,3.1-3.4c0.9,0,1.6,0.4,2.1,0.7v-4h1.1v8.5c0,2.2-1.4,3.4-3.1,3.4
		c-1.7,0-3.1-1.2-3.1-3.4V53.8z M191.2,58c1.2,0,2.1-0.8,2.1-2.5v-3.4c-0.7-0.4-1.3-0.7-2-0.7c-1.1,0-2.1,0.6-2.1,2.5v1.6
		C189.1,57.2,190,58,191.2,58"/><polygon class="st0" points="202.8,47.9 203.9,47.9 203.9,52.7 209,52.7 209,47.9 210.1,47.9 210.1,58.8 209,58.8 209,53.8 
		203.9,53.8 203.9,58.8 202.8,58.8 	"/><path class="st0" d="M213.6,53.6c0-2.1,1.4-3.3,3.1-3.3c1.7,0,3.1,1.2,3.1,3V55h-5.1v0.7c0,1.6,0.9,2.4,2.2,2.4
		c0.8,0,1.5-0.2,2.2-0.4l0.2,1c-0.8,0.3-1.6,0.4-2.4,0.4c-1.9,0-3.2-1.1-3.2-3.3V53.6z M218.6,54v-0.7c0-1.2-0.8-2-2-2
		c-1.2,0-2,0.7-2,2.3V54H218.6z"/><path class="st0" d="M225.4,54h1.9v-0.6c0-1.3-0.6-2-1.9-2c-0.7,0-1.4,0.2-2.1,0.4l-0.2-0.9c0.7-0.2,1.5-0.4,2.3-0.4
		c1.8,0,2.9,1.1,2.9,3v3c0,1.4-1.3,2.6-2.9,2.6c-1.7,0-2.9-1.2-2.9-2.6C222.5,54.9,223.6,54,225.4,54 M225.4,58
		c1.1,0,1.8-0.7,1.8-1.6v-1.5h-1.9c-1.2,0-1.8,0.6-1.8,1.5C223.6,57.3,224.3,58,225.4,58"/><polygon class="st0" points="231.7,47.1 232.8,46.8 232.8,58.8 231.7,58.8 	"/><polygon class="st0" points="236.8,51.4 235.7,51.4 235.4,50.6 236.8,50.6 236.8,48.2 237.9,47.9 237.9,50.6 239.6,50.6 
		239.6,51.4 237.9,51.4 237.9,58.8 236.8,58.8 	"/><path class="st0" d="M242.3,47h1.1v4c0.5-0.3,1.3-0.7,2.1-0.7c1.7,0,2.9,0.9,2.9,3.3v5.2h-1.1v-5.1c0-1.8-0.8-2.4-1.9-2.4
		c-0.7,0-1.4,0.3-2.1,0.7v6.7h-1.1V47z"/><polygon class="st0" points="72.5,0.8 44.6,0.8 44.6,7.6 54.5,7.6 54.5,40.9 62.6,40.9 62.6,7.6 72.5,7.6 	"/><path class="st0" d="M88.6,40.9h14.6v-6.8h-13c-1.7,0-3.1-1.4-3.1-3.1v-7.1h12.7l0-6.5H87.1V7.6h15.5V0.8H79v30.4
		C79,37.4,82.5,40.9,88.6,40.9"/><path class="st0" d="M108.2,16.4v8.8c0,10.3,6.1,16.4,16.3,16.4c3.9,0,7.6-0.6,11.3-1.8l-1.5-6.6c-3.1,1-6.3,1.5-9.8,1.5
		c-5.5,0-8.2-3.4-8.2-10.4v-7.3c0-7,2.7-10.3,8.2-10.3c3.2,0,6.4,0.5,9.8,1.5l1.5-6.5c-3.8-1.2-7.5-1.8-11.3-1.8
		C114.3,0,108.2,6.1,108.2,16.4"/><polygon class="st0" points="172.4,40.9 172.4,0.8 164.3,0.8 164.3,17.2 150.9,17.2 150.9,0.8 142.8,0.8 142.8,40.9 150.9,40.9 
		150.9,23.8 164.3,23.8 164.3,40.9 	"/><path class="st0" d="M204.4,40.9h6.7V0.8h-8.1v16.7c0,1.8,0.1,4,0.2,6.2l0.1,1.5L188.5,0.8h-6.6v40.1h8.1V24.5c0-1.5,0-3.8-0.2-6.4
		l-0.1-1.6l0.2,0.3L204.4,40.9z"/><path class="st0" d="M29.6,0.7C21,13.7,46.3,30,28.5,48.7C21.6,46.5,15.9,37.9,15,31.2c0-0.3-0.5-0.3-0.6,0
		c-0.5,4.6,0.5,9.3,3.3,13.8l0,0c0,0,0,0,0,0.1c0.7,1.2,1.6,2.3,2.5,3.4c0.1,0.1,0.1,0.1,0.2,0.2c0.7,0.8,1.4,1.6,2.2,2.3
		c0,0,0,0,0,0c2,1.9,4.5,4.1,7.8,6c0.2,0.1,0.2,0.5-0.1,0.6l-1.8,0.5c-1.3,0.4-2.8,0-3.8-0.9c-1.3-1.3-3.2-3.3-5.2-6.1
		c-2.4-0.2-4.9-0.8-7.3-2.1C-6.4,36.7-1.8,8.1,29.6,0.7"/><path class="st0" d="M225.1,33.7c0.3-1.1,0.6-2,0.9-3l0-0.1h12.7l0,0.1c0.2,0.8,0.5,1.6,0.7,2.3c0.7,2.2,1.3,4.4,1.9,7.2l0.1,0.7
		h8.2l-0.3-1.1c-3.8-14.9-8-27.5-12.8-38.5l-0.2-0.5h-7.8l-0.2,0.5c-4.3,9.9-8.2,22.1-12.5,38.5l-0.3,1.1h7.5l0.1-0.7
		C223.9,37.7,224.6,35.6,225.1,33.7 M227.6,23.9c1.2-3.9,2.8-8.7,4.5-13.4l0.1-0.2l0.5,1.2c1.5,4,3.3,8.6,4.5,12.4l0,0.1h-9.7
		L227.6,23.9z"/><path class="st0" d="M148.8,58.1C148.8,58.1,148.8,58.1,148.8,58.1C148.8,58.1,148.8,58.1,148.8,58.1c0.1,0.1,0.1,0.1,0.1,0.1l0,0
		c0.1,0.1,0.2,0.2,0.2,0.2c0,0,0,0,0.1,0c0,0,0,0,0,0l0,0c0.1,0.1,0.1,0.1,0.2,0.1c0.3,0.2,0.5,0.2,0.8,0.2c0.2,0,0.6,0,0.7,0V58
		h-0.7c-0.1,0-0.3-0.1-0.5-0.2c-0.1-0.1-0.2-0.1-0.2-0.2c0,0,0,0,0,0c0,0-0.1-0.1-0.1-0.1l0,0c0,0,0,0,0,0c0,0,0,0-0.1-0.1l0,0l0,0
		c0.2-0.5,0.4-1,0.4-1.5v-1.1h1.1v-0.9l-2,0v2c0,0.4,0,0.6-0.1,0.7l0,0l-0.1-0.1c-0.1-0.1-1.2-1.5-2.2-2.7c-0.2-0.2-0.4-0.4-0.6-0.6
		c-0.6-0.6-1.3-1.3-1.3-2.4c0-1.1,0.9-1.7,1.7-1.7c1.1,0,1.8,0.6,1.8,1.7c0,0.7-0.3,1.2-0.8,1.5c0.2,0.2,0.3,0.4,0.5,0.6
		c0.1,0,0.1-0.1,0.1-0.1c0,0,0.1,0,0.1-0.1c0.6-0.5,1-1.2,1-2c0-1.5-1-2.6-2.8-2.6c-1.5,0-2.6,1.1-2.6,2.6c0,0.3,0,0.5,0,0.5
		c0.1,1,0.6,1.7,1.1,2.1l0,0l-0.1,0c-0.7,0.3-1.5,1.3-1.6,2.4c-0.1,0.9,0.2,1.8,0.7,2.4c0.6,0.6,1.4,1,2.5,1
		C147.2,59,148.1,58.7,148.8,58.1L148.8,58.1L148.8,58.1z M148.1,57.3c-0.5,0.5-1,0.8-2,0.8c-0.7,0-1.3-0.2-1.7-0.7
		c-0.4-0.4-0.6-1-0.5-1.7c0.1-1,0.5-1.5,1.4-1.9l0,0l0,0c0.1,0.1,0.2,0.2,0.3,0.4c0.6,0.8,1.3,1.6,1.5,1.9l0.4,0.6
		C147.8,56.8,147.9,57,148.1,57.3L148.1,57.3z"/><path class="st0" d="M150.4,58c-0.1,0-0.3-0.1-0.5-0.2c-0.1-0.1-0.2-0.1-0.2-0.2c0,0,0,0,0,0c0,0-0.1-0.1-0.1-0.1l0,0c0,0,0,0,0,0
		c0,0,0,0-0.1-0.1l0,0l0,0c0.2-0.5,0.4-1,0.4-1.5v-1.1h1.1v-0.9l-2,0v2c0,0.4,0,0.6-0.1,0.7l0,0l-0.1-0.1c-0.1-0.1-1.2-1.5-2.2-2.7
		c0,0-0.1-0.1-0.1-0.1c0.2-0.1,0.4-0.2,0.6-0.2c0.7-0.2,0.9-0.4,0.9-0.4c0.1,0,0.1-0.1,0.1-0.1c0,0,0.1,0,0.1-0.1c0.6-0.5,1-1.2,1-2
		c0-1.5-1-2.6-2.8-2.6c-1.5,0-2.6,1.1-2.6,2.6c0,0.3,0,0.5,0,0.5c0.1,1,0.6,1.7,1.1,2.1l0,0c-0.1,0.1-0.2,0.1-0.3,0.2c0,0,0,0,0,0
		c-0.6,0.4-1.3,1.3-1.4,2.3c-0.1,0.9,0.2,1.8,0.7,2.4c0.6,0.6,1.4,1,2.5,1c1.1,0,2-0.3,2.6-0.9l0,0l0,0c0,0,0,0,0,0c0,0,0,0,0,0
		c0,0,0,0,0.1,0.1l0,0c0.1,0.1,0.2,0.2,0.2,0.2c0,0,0,0,0.1,0c0,0,0,0,0,0l0,0c0.1,0.1,0.2,0.1,0.2,0.1c0.3,0.2,0.5,0.2,0.8,0.2
		c0.2,0,0.6,0,0.7,0V58H150.4z M144.4,50.6c0-1.1,0.9-1.7,1.7-1.7c1.1,0,1.8,0.6,1.8,1.7c0,0.7-0.3,1.2-0.8,1.5c0,0-0.2,0.1-0.9,0.4
		c-0.2,0.1-0.5,0.2-0.7,0.3C145,52.2,144.4,51.6,144.4,50.6 M146.2,58.1c-0.7,0-1.3-0.2-1.7-0.7c-0.4-0.4-0.6-1-0.5-1.7
		c0.1-1,0.5-1.5,1.4-1.9l0,0l0,0c0.1,0.1,0.2,0.2,0.3,0.4c0.6,0.8,1.3,1.6,1.5,1.9l0.4,0.6c0.1,0.2,0.3,0.4,0.4,0.6l0.1,0.1
		C147.7,57.8,147.1,58.1,146.2,58.1"/></g></svg>