<?xml version="1.0" encoding="UTF-8"?> <svg xmlns="http://www.w3.org/2000/svg" viewBox="0 0 170 60" fill="none"><g clip-path="url(#clip0_13405_4211)"><path d="M58.4944 57.4849H57.3989L53.3941 51.2891H53.3582V51.7022C53.43 52.3128 53.448 52.8515 53.448 53.3185V57.4849H52.5859V50.014H53.6814L53.9149 50.3732L56.3752 54.1625L57.6862 56.1918H57.7221C57.7221 56.1918 57.7042 55.8147 57.6862 55.3119C57.6682 54.809 57.6503 54.4498 57.6503 54.2164V49.9961H58.5303V57.4669L58.4944 57.4849Z" fill="#003B5C"></path><path d="M60.5605 50.3563C60.5605 50.1588 60.6144 49.9971 60.7222 49.9073C60.8299 49.8176 60.9556 49.7637 61.0993 49.7637C61.243 49.7637 61.3687 49.8176 61.4764 49.9073C61.5842 49.9971 61.6381 50.1408 61.6381 50.3563C61.6381 50.5718 61.5842 50.6975 61.4764 50.8053C61.3687 50.8951 61.243 50.9489 61.0993 50.9489C60.9556 50.9489 60.812 50.8951 60.7222 50.8053C60.6324 50.7155 60.5605 50.5539 60.5605 50.3563ZM61.5662 57.4859H60.6503V51.8828H61.5662V57.4859Z" fill="#003B5C"></path><path d="M62.9117 60.0001C62.5884 60.0001 62.319 59.9642 62.1035 59.8744V59.1381C62.337 59.2099 62.5704 59.2459 62.8039 59.2459C63.0733 59.2459 63.2708 59.174 63.3965 59.0304C63.5223 58.8867 63.5761 58.6712 63.5761 58.3659V51.8828H64.492V58.33C64.492 58.8867 64.3663 59.2997 64.0969 59.5871C63.8276 59.8744 63.4325 60.0001 62.9117 60.0001ZM63.5043 50.3563C63.5043 50.1588 63.5582 49.9971 63.6659 49.9073C63.7737 49.8176 63.8994 49.7637 64.0431 49.7637C64.1867 49.7637 64.3124 49.8176 64.4202 49.9073C64.5279 49.9971 64.5818 50.1408 64.5818 50.3563C64.5818 50.5718 64.5279 50.6975 64.4202 50.8053C64.3124 50.8951 64.1867 50.9489 64.0431 50.9489C63.8994 50.9489 63.7557 50.8951 63.6659 50.8053C63.5761 50.7155 63.5043 50.5539 63.5043 50.3563Z" fill="#003B5C"></path><path d="M70.3291 57.4858V53.894C70.3291 53.4451 70.2214 53.1038 70.0238 52.8704C69.8263 52.6369 69.503 52.5292 69.072 52.5292C68.4973 52.5292 68.0843 52.6908 67.8149 52.9961C67.5455 53.3014 67.4198 53.8401 67.4198 54.5585V57.4498H66.5039V49.4941H67.4198V51.8288C67.4198 52.1341 67.4198 52.4034 67.3659 52.619H67.4198C67.5814 52.3496 67.8328 52.1341 68.1381 51.9724C68.4434 51.8288 68.7847 51.739 69.1798 51.739C69.8622 51.739 70.383 51.9006 70.7242 52.2239C71.0654 52.5471 71.245 53.0679 71.245 53.7863V57.4319H70.3291V57.4858Z" fill="#003B5C"></path><path d="M74.0823 51.8836V55.4933C74.0823 55.9422 74.19 56.2835 74.3876 56.499C74.5851 56.7145 74.9084 56.8222 75.3394 56.8222C75.9141 56.8222 76.3271 56.6606 76.5965 56.3373C76.8659 56.0141 76.9916 55.4933 76.9916 54.7929V51.8656H77.9075V57.4687H77.1532L77.0275 56.7324H76.9736C76.812 57.0018 76.5785 57.2173 76.2553 57.361C75.95 57.5046 75.5908 57.5765 75.1957 57.5765C74.5133 57.5765 74.0105 57.4149 73.6692 57.0916C73.328 56.7683 73.1484 56.2475 73.1484 55.5292V51.8477H74.0823V51.8836Z" fill="#003B5C"></path><path d="M79.8467 50.3563C79.8467 50.1588 79.9006 49.9971 80.0083 49.9073C80.1161 49.8176 80.2418 49.7637 80.3854 49.7637C80.5291 49.7637 80.6548 49.8176 80.7626 49.9073C80.8703 49.9971 80.9242 50.1408 80.9242 50.3563C80.9242 50.5718 80.8703 50.6975 80.7626 50.8053C80.6548 50.8951 80.5291 50.9489 80.3854 50.9489C80.2418 50.9489 80.0981 50.8951 80.0083 50.8053C79.9185 50.7155 79.8467 50.5539 79.8467 50.3563ZM80.8524 57.4859H79.9365V51.8828H80.8524V57.4859Z" fill="#003B5C"></path><path d="M86.5272 55.9422C86.5272 56.463 86.3297 56.876 85.9346 57.1634C85.5395 57.4507 84.9828 57.5944 84.2824 57.5944C83.582 57.5944 82.9535 57.4687 82.5225 57.2352V56.3912C83.1331 56.6965 83.7436 56.8401 84.3004 56.8401C84.7673 56.8401 85.1085 56.7683 85.3061 56.6067C85.5216 56.463 85.6293 56.2475 85.6293 55.9961C85.6293 55.7806 85.5216 55.583 85.324 55.4393C85.1265 55.2777 84.7673 55.1161 84.2465 54.9185C83.7257 54.721 83.3486 54.5414 83.1331 54.3977C82.9176 54.2541 82.7559 54.0924 82.6661 53.9129C82.5763 53.7333 82.5225 53.5178 82.5225 53.2484C82.5225 52.7815 82.702 52.4223 83.0792 52.1529C83.4563 51.8835 83.9592 51.7578 84.6236 51.7578C85.2881 51.7578 85.8628 51.8835 86.4195 52.1349L86.1142 52.8712C85.5395 52.6378 85.0367 52.5121 84.5698 52.5121C84.1926 52.5121 83.9053 52.566 83.7077 52.6917C83.5102 52.8174 83.4024 52.979 83.4024 53.1945C83.4024 53.41 83.4922 53.5716 83.6539 53.6974C83.8155 53.8231 84.2285 54.0206 84.8391 54.2541C85.3061 54.4337 85.6473 54.5953 85.8807 54.739C86.1142 54.8826 86.2758 55.0622 86.3656 55.2418C86.4734 55.4214 86.5272 55.6548 86.5272 55.9242V55.9422Z" fill="#003B5C"></path><path d="M94.9689 55.493C94.9689 56.1395 94.7354 56.6603 94.2685 57.0374C93.8015 57.4146 93.1371 57.5941 92.311 57.5941C91.431 57.5941 90.7486 57.4684 90.2637 57.235V56.337C90.5869 56.4807 90.9281 56.5885 91.3053 56.6603C91.6824 56.7321 92.0416 56.786 92.3648 56.786C92.9216 56.786 93.3526 56.6783 93.622 56.4627C93.8913 56.2472 94.053 55.9599 94.053 55.5828C94.053 55.3314 93.9991 55.1338 93.9093 54.9722C93.8015 54.8105 93.6399 54.6669 93.3885 54.5232C93.155 54.3795 92.7779 54.2179 92.293 54.0563C91.5926 53.8049 91.1077 53.4996 90.8024 53.1583C90.5151 52.8171 90.3535 52.3682 90.3535 51.8294C90.3535 51.2547 90.569 50.7878 91.0179 50.4466C91.4489 50.1054 92.0236 49.9258 92.742 49.9258C93.4603 49.9258 94.1787 50.0694 94.8072 50.3388L94.5199 51.147C93.8734 50.8776 93.2807 50.7519 92.724 50.7519C92.2751 50.7519 91.9338 50.8417 91.6824 51.0392C91.431 51.2368 91.3053 51.4882 91.3053 51.8474C91.3053 52.0988 91.3592 52.2963 91.4489 52.458C91.5387 52.6196 91.7004 52.7633 91.9159 52.9069C92.1314 53.0326 92.4726 53.1943 92.9395 53.3559C93.4962 53.5534 93.9093 53.751 94.1787 53.9485C94.448 54.1461 94.6456 54.3616 94.7893 54.613C94.915 54.8644 94.9868 55.1697 94.9868 55.5109L94.9689 55.493Z" fill="#003B5C"></path><path d="M100.212 57.4863L100.033 56.6961H99.9968C99.7274 57.0552 99.4401 57.2887 99.1707 57.4144C98.9013 57.5401 98.5421 57.594 98.1291 57.594C97.5724 57.594 97.1414 57.4503 96.8361 57.163C96.5308 56.8757 96.3691 56.4626 96.3691 55.9418C96.3691 54.8104 97.2671 54.1998 99.0629 54.1459L100.015 54.11V53.7688C100.015 53.3378 99.925 53.0325 99.7454 52.835C99.5658 52.6374 99.2605 52.5297 98.8654 52.5297C98.5601 52.5297 98.2907 52.5656 98.0213 52.6554C97.752 52.7452 97.5185 52.8349 97.285 52.9427L96.9977 52.2603C97.285 52.1166 97.5903 51.9909 97.9136 51.9011C98.2548 51.8113 98.5781 51.7754 98.9013 51.7754C99.5837 51.7754 100.087 51.9191 100.41 52.2244C100.733 52.5297 100.913 52.9966 100.913 53.6611V57.4863H100.248H100.212ZM98.3266 56.8577C98.8474 56.8577 99.2425 56.714 99.5478 56.4446C99.8352 56.1753 99.9968 55.7802 99.9968 55.2594V54.7565L99.1707 54.7925C98.5242 54.8104 98.0573 54.9182 97.7699 55.0977C97.4826 55.2773 97.3209 55.5647 97.3209 55.9598C97.3209 56.2471 97.4107 56.4806 97.5903 56.6422C97.7699 56.8038 98.0213 56.8757 98.3446 56.8757L98.3266 56.8577Z" fill="#003B5C"></path><path d="M103.732 51.8836V55.4933C103.732 55.9422 103.839 56.2835 104.037 56.499C104.235 56.7145 104.558 56.8222 104.989 56.8222C105.563 56.8222 105.977 56.6606 106.246 56.3373C106.515 56.0141 106.641 55.4933 106.641 54.7929V51.8656H107.557V57.4687H106.803L106.677 56.7324H106.623C106.461 57.0018 106.228 57.2173 105.905 57.361C105.599 57.5046 105.24 57.5765 104.845 57.5765C104.163 57.5765 103.66 57.4149 103.319 57.0916C102.977 56.7683 102.798 56.2475 102.798 55.5292V51.8477H103.732V51.8836Z" fill="#003B5C"></path><path d="M112.173 51.7754C112.425 51.7754 112.64 51.7933 112.838 51.8293L112.73 52.6733C112.515 52.6194 112.317 52.6015 112.119 52.6015C111.832 52.6015 111.545 52.6913 111.293 52.8529C111.042 53.0145 110.844 53.248 110.701 53.5353C110.557 53.8227 110.485 54.1459 110.485 54.4872V57.4863H109.569V51.8831H110.324L110.431 52.9068H110.467C110.683 52.5297 110.934 52.2603 111.222 52.0627C111.509 51.8652 111.832 51.7754 112.173 51.7754Z" fill="#003B5C"></path><path d="M118.834 57.4864H116.141V56.9477L117.021 56.7501V50.7699L116.141 50.5544V50.0156H118.834V50.5544L117.954 50.7699V56.7501L118.834 56.9477V57.4864Z" fill="#003B5C"></path><path d="M124.205 57.4863V53.8945C124.205 53.4456 124.097 53.1043 123.9 52.8709C123.702 52.6374 123.379 52.5297 122.948 52.5297C122.373 52.5297 121.96 52.6913 121.691 53.0145C121.421 53.3378 121.296 53.8586 121.296 54.5769V57.4863H120.38V51.8831H121.116L121.26 52.6554H121.314C121.493 52.386 121.727 52.1705 122.05 52.0088C122.355 51.8652 122.715 51.7754 123.092 51.7754C123.774 51.7754 124.295 51.937 124.618 52.2782C124.959 52.6194 125.121 53.1402 125.121 53.8406V57.4863H124.205Z" fill="#003B5C"></path><path d="M129.126 57.5927C128.39 57.5927 127.833 57.3413 127.438 56.8385C127.043 56.3356 126.827 55.6173 126.827 54.7014C126.827 53.7855 127.025 53.0672 127.438 52.5464C127.851 52.0256 128.408 51.7741 129.144 51.7741C129.88 51.7741 130.473 52.0435 130.886 52.6002H130.958C130.958 52.6002 130.94 52.4027 130.922 52.1872C130.922 51.9896 130.904 51.846 130.904 51.7741V49.5293H131.82V57.485H131.083L130.94 56.7307H130.904C130.509 57.3054 129.934 57.5927 129.162 57.5927H129.126ZM129.27 56.8205C129.826 56.8205 130.239 56.6769 130.491 56.3716C130.742 56.0663 130.886 55.5634 130.886 54.863V54.7014C130.886 53.9292 130.76 53.3725 130.491 53.0312C130.221 52.708 129.826 52.5284 129.27 52.5284C128.803 52.5284 128.425 52.708 128.174 53.0851C127.923 53.4623 127.779 54.001 127.779 54.7014C127.779 55.4018 127.905 55.9226 128.156 56.2818C128.408 56.6409 128.785 56.8205 129.27 56.8205Z" fill="#003B5C"></path><path d="M134.676 51.8836V55.4933C134.676 55.9422 134.784 56.2835 134.981 56.499C135.179 56.7145 135.502 56.8222 135.933 56.8222C136.508 56.8222 136.921 56.6606 137.19 56.3373C137.46 56.0141 137.585 55.4933 137.585 54.7929V51.8656H138.501V57.4687H137.747L137.621 56.7324H137.567C137.406 57.0018 137.172 57.2173 136.849 57.361C136.544 57.5046 136.185 57.5765 135.789 57.5765C135.107 57.5765 134.604 57.4149 134.263 57.0916C133.922 56.7683 133.742 56.2475 133.742 55.5292V51.8477H134.676V51.8836Z" fill="#003B5C"></path><path d="M144.211 55.9422C144.211 56.463 144.013 56.876 143.618 57.1634C143.223 57.4507 142.666 57.5944 141.966 57.5944C141.266 57.5944 140.637 57.4687 140.206 57.2352V56.3912C140.817 56.6965 141.427 56.8401 141.984 56.8401C142.451 56.8401 142.792 56.7683 142.99 56.6067C143.205 56.463 143.313 56.2475 143.313 55.9961C143.313 55.7806 143.205 55.583 143.008 55.4393C142.81 55.2777 142.451 55.1161 141.93 54.9185C141.409 54.721 141.032 54.5414 140.817 54.3977C140.601 54.2541 140.44 54.0924 140.35 53.9129C140.26 53.7333 140.206 53.5178 140.206 53.2484C140.206 52.7815 140.386 52.4223 140.763 52.1529C141.14 51.8835 141.643 51.7578 142.307 51.7578C142.972 51.7578 143.546 51.8835 144.103 52.1349L143.798 52.8712C143.223 52.6378 142.72 52.5121 142.253 52.5121C141.876 52.5121 141.589 52.566 141.391 52.6917C141.194 52.8174 141.086 52.979 141.086 53.1945C141.086 53.41 141.176 53.5716 141.337 53.6974C141.499 53.8231 141.912 54.0206 142.523 54.2541C142.99 54.4337 143.331 54.5953 143.564 54.739C143.798 54.8826 143.959 55.0622 144.049 55.2418C144.157 55.4214 144.211 55.6548 144.211 55.9242V55.9422Z" fill="#003B5C"></path><path d="M147.893 56.8395C148.019 56.8395 148.144 56.8395 148.306 56.8036C148.468 56.7676 148.593 56.7497 148.665 56.7138V57.4141C148.665 57.4141 148.45 57.486 148.27 57.5219C148.091 57.5578 147.911 57.5758 147.731 57.5758C146.636 57.5758 146.079 57.0011 146.079 55.8517V52.5833H145.289V52.1522L146.097 51.7931L146.456 50.5898H146.995V51.8829H148.611V52.6012H146.995V55.8338C146.995 56.157 147.067 56.4085 147.229 56.588C147.39 56.7676 147.606 56.8395 147.875 56.8395H147.893Z" fill="#003B5C"></path><path d="M152.706 51.7754C152.957 51.7754 153.172 51.7933 153.37 51.8293L153.262 52.6733C153.047 52.6194 152.849 52.6015 152.652 52.6015C152.364 52.6015 152.077 52.6913 151.826 52.8529C151.574 53.0145 151.377 53.248 151.233 53.5353C151.089 53.8227 151.017 54.1459 151.017 54.4872V57.4863H150.102V51.8831H150.856L150.964 52.9068H150.999C151.215 52.5297 151.466 52.2603 151.754 52.0627C152.041 51.8652 152.364 51.7754 152.706 51.7754Z" fill="#003B5C"></path><path d="M154.663 50.3563C154.663 50.1588 154.717 49.9971 154.825 49.9073C154.932 49.8176 155.058 49.7637 155.202 49.7637C155.346 49.7637 155.471 49.8176 155.579 49.9073C155.687 49.9971 155.741 50.1408 155.741 50.3563C155.741 50.5718 155.687 50.6975 155.579 50.8053C155.471 50.8951 155.346 50.9489 155.202 50.9489C155.058 50.9489 154.915 50.8951 154.825 50.8053C154.735 50.7155 154.663 50.5539 154.663 50.3563ZM155.651 57.4859H154.735V51.8828H155.651V57.4859Z" fill="#003B5C"></path><path d="M160.05 57.5944C159.206 57.5944 158.542 57.343 158.075 56.8222C157.59 56.3193 157.356 55.6189 157.356 54.721C157.356 53.8231 157.572 53.1047 158.021 52.566C158.47 52.0272 159.063 51.7578 159.835 51.7578C160.535 51.7578 161.11 51.9913 161.523 52.4402C161.936 52.8892 162.151 53.5178 162.151 54.29V54.8467H158.308C158.308 55.4753 158.488 55.9601 158.793 56.3014C159.098 56.6246 159.529 56.8042 160.104 56.8042C160.409 56.8042 160.697 56.7862 160.966 56.7324C161.236 56.6785 161.559 56.5707 161.918 56.4271V57.2352C161.613 57.3609 161.325 57.4687 161.038 57.5226C160.769 57.5764 160.445 57.6124 160.068 57.6124L160.05 57.5944ZM159.817 52.53C159.386 52.53 159.027 52.6737 158.775 52.961C158.524 53.2484 158.362 53.6435 158.326 54.1463H161.182C161.182 53.6255 161.056 53.2304 160.822 52.9431C160.589 52.6737 160.248 52.53 159.817 52.53Z" fill="#003B5C"></path><path d="M167.503 55.9422C167.503 56.463 167.305 56.876 166.91 57.1634C166.515 57.4507 165.958 57.5944 165.258 57.5944C164.558 57.5944 163.929 57.4687 163.498 57.2352V56.3912C164.109 56.6965 164.719 56.8401 165.276 56.8401C165.743 56.8401 166.084 56.7683 166.282 56.6067C166.497 56.463 166.605 56.2475 166.605 55.9961C166.605 55.7806 166.497 55.583 166.3 55.4393C166.102 55.2777 165.743 55.1161 165.222 54.9185C164.701 54.721 164.324 54.5414 164.109 54.3977C163.893 54.2541 163.732 54.0924 163.642 53.9129C163.552 53.7333 163.498 53.5178 163.498 53.2484C163.498 52.7815 163.678 52.4223 164.055 52.1529C164.432 51.8835 164.935 51.7578 165.599 51.7578C166.264 51.7578 166.838 51.8835 167.395 52.1349L167.09 52.8712C166.515 52.6378 166.012 52.5121 165.545 52.5121C165.168 52.5121 164.881 52.566 164.683 52.6917C164.486 52.8174 164.378 52.979 164.378 53.1945C164.378 53.41 164.468 53.5716 164.629 53.6974C164.791 53.8231 165.204 54.0206 165.815 54.2541C166.282 54.4337 166.623 54.5953 166.856 54.739C167.09 54.8826 167.251 55.0622 167.341 55.2418C167.449 55.4214 167.503 55.6548 167.503 55.9242V55.9422Z" fill="#003B5C"></path><path d="M57.7219 28.9315C57.7219 31.5894 58.5659 34.373 58.6916 35.1273V35.2889H51.4004V35.1273C51.6159 34.373 52.46 31.5894 52.46 28.9315V20.5448C52.46 17.851 51.6159 15.0674 51.4004 14.3491V14.1874H57.7219V28.9495V28.9315ZM72.43 35.1452V35.3069H65.1747V35.1452C65.3004 34.391 66.1804 31.6074 66.1804 28.9495V21.7301C66.1804 18.5694 64.2049 17.2943 61.9601 17.2943C60.9544 17.2943 59.9847 17.5457 59.0149 18.0486L58.8533 17.8869C58.8533 17.8869 60.5054 14.0977 64.3845 14.0977C68.7665 14.0977 70.706 17.0429 71.2627 19.162C71.3884 19.7546 71.4243 20.3832 71.4243 21.0656V28.9495C71.4243 31.6074 72.2684 34.391 72.43 35.1452Z" fill="#003B5C"></path><path d="M75.1064 6.91334C75.1064 5.0636 76.6689 3.53711 78.5725 3.53711C80.4761 3.53711 82.0385 5.0636 82.0385 6.91334C82.0385 8.76309 80.4402 10.3255 78.5725 10.3255C76.7048 10.3255 75.1064 8.79901 75.1064 6.91334ZM76.166 28.9307V20.544C76.166 17.8502 75.3219 15.0666 75.1603 14.3482V14.1866H81.4099V28.9487C81.4099 31.6425 82.254 34.4261 82.4156 35.1444V35.306H75.1603V35.1444C75.286 34.4261 76.166 31.6425 76.166 28.9487V28.9307Z" fill="#003B5C"></path><path d="M86.24 31.4629V20.544C86.24 17.8502 85.3959 15.0666 85.2343 14.3482V14.1866H91.43V31.4808C91.43 39.7059 86.5812 42.6152 81.6425 42.9026L81.5527 42.7769C85.5934 40.0831 86.24 35.9885 86.24 31.4808V31.4629ZM85.0547 6.91334C85.0547 5.0636 86.6171 3.53711 88.5207 3.53711C90.4243 3.53711 91.9867 5.0636 91.9867 6.91334C91.9867 8.76309 90.3884 10.3255 88.5207 10.3255C86.653 10.3255 85.0547 8.79901 85.0547 6.91334Z" fill="#003B5C"></path><path d="M102.205 35.1434V35.305H94.9499V35.1434C95.0756 34.4251 95.9556 31.6415 95.9556 28.9477V10.8992C95.9556 8.2413 95.0756 5.4577 94.8242 4.82914V4.66752L101.2 3.85938V28.9477C101.2 31.6415 102.044 34.4251 102.205 35.1434ZM114.938 28.9297C114.938 31.6235 115.782 34.4071 115.944 35.1255V35.2871H108.688V35.1255C108.814 34.4071 109.694 31.6235 109.694 28.9297V21.6744C109.694 18.5137 107.665 17.2925 105.438 17.2925C104.432 17.2925 103.498 17.5439 102.528 18.0108L102.367 17.921C102.367 17.921 103.965 14.0779 107.898 14.0779C112.244 14.0779 114.22 17.077 114.722 19.1781C114.848 19.7169 114.938 20.3634 114.938 21.0279V28.9118V28.9297Z" fill="#003B5C"></path><path d="M119.104 28.517V20.5433C119.104 17.8854 118.26 15.1018 118.099 14.3476V14.1859H124.384V27.8525C124.384 31.0132 126.288 32.2344 128.353 32.2344C129.287 32.2344 130.167 32.0189 131.101 31.552L131.262 31.7675C131.262 31.7675 129.987 35.6466 126.072 35.6466C121.762 35.6466 119.104 32.863 119.104 28.517ZM132.95 31.5879C132.861 31.0312 132.735 29.7741 132.735 28.9659V20.5253C132.735 17.8675 131.855 15.0839 131.729 14.3296V14.168H137.979V28.93C137.979 31.6238 138.823 34.4074 138.985 35.1258V35.2874H133.795C133.489 34.5691 133.112 33.0964 132.95 31.5699V31.5879Z" fill="#003B5C"></path><path d="M141.697 6.91334C141.697 5.0636 143.26 3.53711 145.163 3.53711C147.067 3.53711 148.611 5.0636 148.611 6.91334C148.611 8.76309 147.013 10.3255 145.163 10.3255C143.314 10.3255 141.697 8.79901 141.697 6.91334ZM142.739 28.9307V20.544C142.739 17.8502 141.895 15.0666 141.733 14.3482V14.1866H147.983V28.9487C147.983 31.6425 148.827 34.4261 148.988 35.1444V35.306H141.733V35.1444C141.859 34.4261 142.739 31.6425 142.739 28.9487V28.9307Z" fill="#003B5C"></path><path d="M152.076 33.7787V28.3731H152.238C154.555 30.8694 157.392 33.9763 160.553 33.9763C162.331 33.9763 164.145 33.0065 164.145 30.9772C164.145 28.9478 162.115 28.1038 158.667 26.9365C154.321 25.4279 151.699 23.5602 151.699 20.1481C151.699 16.2331 155.165 13.8984 160.086 13.8984C162.025 13.8984 164.809 14.3654 167.503 15.5506V20.7048H167.341C165.096 18.0469 162.492 15.5147 159.619 15.5147C157.805 15.5147 156.117 16.4486 156.117 18.2085C156.117 20.2738 158.398 20.9562 161.72 22.0876C166.479 23.7398 168.347 25.7512 168.347 28.9119C168.347 33.5991 164.432 35.6644 160.212 35.6644C158.146 35.6644 155.327 35.1256 152.076 33.7608V33.7787Z" fill="#003B5C"></path><path d="M17.2228 26.578H25.0707C27.2796 26.578 29.3628 27.1706 31.1587 28.1763C30.6738 25.249 28.1237 23.0222 25.0707 23.0222H17.2228C15.0138 23.0222 12.9306 22.4295 11.1348 21.4238C11.6197 24.3511 14.1698 26.578 17.2228 26.578Z" fill="#003B5C"></path><path d="M17.2228 35.3963H25.0707C28.1417 35.3963 30.6738 33.1695 31.1587 30.2422C29.3628 31.2658 27.2796 31.8405 25.0707 31.8405H17.2228C15.0138 31.8405 12.9306 31.2479 11.1348 30.2422C11.6197 33.1695 14.1698 35.3963 17.2228 35.3963Z" fill="#003B5C"></path><path d="M25.0707 17.7609C27.2796 17.7609 29.3628 18.3535 31.1587 19.3592C30.6738 16.432 28.1237 14.2051 25.0707 14.2051H17.2228C14.1518 14.2051 11.6197 16.432 11.1348 19.3592C12.9306 18.3356 15.0138 17.7609 17.2228 17.7609H25.0707Z" fill="#003B5C"></path><path d="M16.6118 45.9199C10.7752 45.9199 5.19006 44.9142 0 43.0645C4.39988 47.0513 10.2185 49.4757 16.6118 49.4757H25.6989C32.0922 49.4757 37.9288 47.0513 42.3107 43.0645C37.1206 44.9142 31.5175 45.9199 25.6989 45.9199H16.6118Z" fill="#003B5C"></path><path d="M25.6989 3.55582C31.5355 3.55582 37.1206 4.56151 42.3107 6.41125C37.9108 2.42442 32.0922 0 25.6989 0H16.6118C10.2185 0 4.38192 2.42442 0 6.41125C5.19006 4.56151 10.7932 3.55582 16.6118 3.55582H25.6989Z" fill="#003B5C"></path><path d="M25.0709 7.11133H17.223C12.9308 7.11133 9.14154 9.30229 6.93262 12.6246C9.8958 11.3675 13.1822 10.6671 16.6124 10.6671H25.6995C29.1296 10.6671 32.398 11.3675 35.3612 12.6246C33.1523 9.30229 29.363 7.11133 25.0709 7.11133Z" fill="#003B5C"></path><path d="M17.223 42.5075H25.0709C29.363 42.5075 33.1523 40.3165 35.3612 36.9941C32.398 38.2512 29.1296 38.9516 25.6995 38.9516H16.6124C13.1822 38.9516 9.91376 38.2512 6.93262 36.9941C9.14154 40.3165 12.9308 42.5075 17.223 42.5075Z" fill="#003B5C"></path></g><defs><clipPath id="clip0_13405_4211"><rect width="169.5" height="60" fill="white"></rect></clipPath></defs></svg> 