<?xml version="1.0" encoding="utf-8"?><!--Generator: Adobe Illustrator 24.3.0, SVG Export Plug-In . SVG Version: 6.00 Build 0)--><svg version="1.1" id="Calque_1" xmlns="http://www.w3.org/2000/svg" xmlns:xlink="http://www.w3.org/1999/xlink" x="0px" y="0px" viewBox="0 0 85 112" style="enable-background:new 0 0 85 112;" xml:space="preserve"><style type="text/css">.st0{fill:#D4006D;}
	.st1{clip-path:url(#SVGID_2_);fill:url(#SVGID_3_);}
	.st2{fill:#A59890;}
	.st3{fill:none;}</style><g><g><path class="st0" d="M8,108.6c3,0,4.3-1.2,4.3-3.2c0-5.1-9.6-2.8-9.6-9.4c0-3.3,2.2-5.2,6-5.2c1.8,0,3.3,0.4,4.6,1.3
			c0.4,0.6,0.6,1.8,0.5,2.6c-1.4-1-3.1-1.7-5-1.7c-2.4,0-3.6,1.1-3.6,2.7c0,4.7,9.6,2.6,9.6,9.4c0,4.4-3.1,5.8-6.7,5.8
			c-2.1,0-4.1-0.5-5.4-1.2C2.2,109,2,107.8,2.1,107C3.7,108,6,108.6,8,108.6"/><path class="st0" d="M28.4,104.8h-7.9l-1.9,5.3c-0.3,0.1-0.7,0.2-1.3,0.2c-0.6,0-1-0.1-1.2-0.2L23,91.4c0.3-0.1,0.9-0.2,1.5-0.2
			c0.6,0,1.2,0.1,1.5,0.2l6.9,18.7c-0.2,0.1-0.7,0.2-1.2,0.2c-0.6,0-1.1-0.1-1.3-0.2L28.4,104.8z M27.6,102.7l-1.4-4.1
			c-0.7-2-1.3-3.9-1.7-5.9h-0.1c-0.4,1.9-1.1,4-1.7,5.8l-1.4,4.1H27.6z"/><path class="st0" d="M37.9,110.1c-0.2,0.1-0.6,0.2-1.1,0.2c-0.6,0-0.9-0.1-1.2-0.2V91.5c0.4-0.1,0.8-0.2,1.6-0.2
			c0.8,0,1.2,0.1,1.5,0.2l7.4,12.1c0.8,1.3,1.4,2.7,1.8,4.1h0.1V91.6c0.2-0.1,0.6-0.2,1.1-0.2c0.6,0,0.9,0.1,1.2,0.2v18.6
			c-0.3,0.1-0.8,0.2-1.5,0.2c-0.7,0-1.2-0.1-1.5-0.2l-7.7-12.6C39,96.5,38.4,95,38,93.7h-0.1V110.1z"/><path class="st0" d="M61.8,93.6v16.5c-0.2,0.1-0.6,0.2-1.2,0.2c-0.6,0-1-0.1-1.2-0.2V93.6h-5.9c-0.1-0.3-0.2-0.6-0.2-1.1
			c0-0.5,0.1-0.8,0.2-1.1h14.2c0.1,0.3,0.2,0.6,0.2,1.1c0,0.5-0.1,0.8-0.2,1.1H61.8z"/><path class="st0" d="M82.7,91.4c0.1,0.3,0.2,0.6,0.2,1.1c0,0.5-0.1,0.8-0.2,1.1h-9.6v6h7.5c0.1,0.3,0.2,0.6,0.2,1.1
			s-0.1,0.8-0.2,1.1h-7.5v6.3h9.6c0.1,0.3,0.2,0.6,0.2,1.1c0,0.5-0.1,0.8-0.2,1.1h-12V91.4H82.7z M81.7,87.7l-6,2.5
			c-0.4-0.4-0.5-1.1-0.5-1.8l5.7-2.7C81.4,86.1,81.6,86.9,81.7,87.7"/></g><g><defs><path id="SVGID_1_" d="M41.9,47.1c-0.3,1-0.5,2.7-0.5,4.3c0,2,0.2,4,0.7,4.9c4.7-2.9,12.3-5.6,18.7-5.6c8.8,0,12.4,4,12.4,13.3
				l0,5.8l-0.6-0.2c-0.8-0.2-2.8-0.8-5.1-1.2c-3-0.5-8-0.6-12,0.5c-3.7,1-10,3.8-10.9,10.9c0,0-0.1,0.8-0.1,2.5
				c1.8,0,3.6-0.3,4.4-0.7l0,0c0.1-5.9,5.2-10,14.4-10c3.8,0,7,0.7,9.8,1.7v8.3c0.8,0.4,2.6,0.6,4.4,0.7l0,0V64.6
				c0-3.4-0.1-6.9-1.4-10.1c-0.9-2.2-2.2-4-3.9-5.2c-1.8-1.3-4.2-2.1-7.4-2.5c-2.6-0.3-5.3-0.2-8,0.2c-0.3,0.1-0.7,0.1-1,0.2
				c-1.4,0.3-2.9,0.6-4.3,1l-1,0.3c-1.5,0.4-3.2,0.8-4.4-0.3c-0.8-0.8-0.9-2.1-0.9-2.7C43.9,46,42.7,46.6,41.9,47.1 M7.3,56.3
				c0,2.9-2.4,5.3-5.3,5.3V66h36.8c0.4-0.9,0.7-2.9,0.7-4.9c0-2-0.2-4-0.7-4.9h-3.6v0c0,2.9-2.4,5.3-5.3,5.3l-12.9,0
				c-2.9,0-5.3-2.4-5.3-5.3l0-38c-0.8-0.5-2.3-0.8-4.4-0.8V56.3z M63.5,7v31.5c1.6,0,3,0.1,4.4,0.3v-23c0-2.9,2.4-5.3,5.3-5.3V7
				c-0.9-0.6-2.4-0.9-4.8-0.9C65.9,6.1,64.3,6.4,63.5,7 M24.6,2.1v3.6c2.9,0,5.3,2.4,5.3,5.3V53l4.4,0V13c1.2,5.2,4,9.7,6.1,13.2
				l9.1,14.4c1.6-0.5,3.3-0.9,5-1.2L30.4,1.3C27.5,1.3,25.8,1.6,24.6,2.1"/></defs><clipPath id="SVGID_2_"><use xlink:href="#SVGID_1_" style="overflow:visible;"/></clipPath><linearGradient id="SVGID_3_" gradientUnits="userSpaceOnUse" x1="853.8239" y1="124.2993" x2="854.8239" y2="124.2993" gradientTransform="matrix(35.0731 -68.0569 -68.0569 -35.0731 -21464.4609 62543.7422)"><stop offset="0" style="stop-color:#830435"/><stop offset="0.1" style="stop-color:#830435"/><stop offset="0.55" style="stop-color:#E6007E"/><stop offset="1" style="stop-color:#F7A600"/></linearGradient><polygon class="st1" points="-31,65.2 17.9,-29.5 110.6,18.2 61.8,113 		"/></g><path class="st2" d="M73.2,11.4L73.2,11.4c-2.4,0-4.4,2-4.4,4.4V39c1.6,0.3,3.1,0.6,4.4,1.1V11.4z"/><path class="st2" d="M62.6,41.7c-5.4,0-11.9,1.7-16.5,3.4v0.2c0,0.8,0.2,1.8,0.7,2.3c0.8,0.8,2.2,0.4,3.6,0.1l1-0.3
		c1.4-0.4,2.9-0.8,4.4-1c0.4-0.1,0.7-0.1,1.1-0.2c2.8-0.4,5.5-0.5,8.2-0.2c3.4,0.4,5.9,1.2,7.8,2.6c1.8,1.3,3.2,3.3,4.2,5.6
		c1.3,3.3,1.4,6.9,1.4,10.4v17.6c1.8,0,3.6-0.3,4.4-0.7V62.9C82.9,47.5,76,41.7,62.6,41.7"/><path class="st2" d="M39.2,81.5c0.8,0.4,2.6,0.6,4.4,0.6c0-1.8,0.1-2.6,0.1-2.7C44.8,72,51.4,69,55.3,68c4.1-1.1,9.3-1,12.4-0.5
		c2,0.3,3.7,0.8,4.7,1.1V65c-3.1-1.1-7-1.5-10.4-1.5C49.4,63.5,39.5,68.8,39.2,81.5"/><path class="st2" d="M29.1,11c0-2.4-2-4.4-4.4-4.4v46.5l4.4,0V11z"/><path class="st2" d="M60.3,38.6c-1-1.9-2.1-3.8-3.2-5.7L37.6,2.1c-0.9-0.4-3.1-0.8-6.2-0.8l24,37.9C57.1,38.9,58.7,38.7,60.3,38.6"/><path class="st2" d="M12.6,56.3c0,2.4,2,4.4,4.4,4.4l12.9,0c2.4,0,4.4-2,4.4-4.4v0L12.6,56.3L12.6,56.3z"/><path class="st2" d="M2,60.7c2.4,0,4.4-2,4.4-4.4V17.5c-2.1,0-3.6,0.3-4.4,0.8V60.7z"/><rect x="1.9" y="1.3" class="st3" width="81.1" height="124.5"/></g></svg>