<svg viewBox="0 0 196 82" xmlns="http://www.w3.org/2000/svg"><path d="M23.9 4.1c0-.5-.4-.6-.9-.6-1 0-2.1.5-4.9 2.1L17 8.7h3.9l-.3.9h-7.5l.3-.9h2.5l1.8-5.1h-2.5l.3-.9h3.6l-.6 1.8c1.6-.9 3.3-2 5.2-2 .6 0 1.1.1 1.3.5v1zm8.7-.7c-2.6 0-4.7 1.3-5.2 2.7-.5 1.2.3 2.6 3.1 2.6 2.4 0 4.6-1.1 5.1-2.6.4-.8.4-2.7-3-2.7m-2.4 6.2c-3.3 0-4.8-1.5-4-3.5.9-2.2 3.7-3.5 6.7-3.5 4.1 0 4.4 2.2 3.9 3.5-.8 2-3.4 3.5-6.6 3.5zm14.1-.2l.4-1.1c-2 1.1-3.2 1.2-4 1.2s-1.6-.1-2.1-.5c-.6-.4-.6-1-.3-1.6l1.5-3.9h-1.7l.3-.9h2.9l-1.6 4.3c-.2.6-.3 1.1.2 1.5.4.2.9.3 1.5.3 1.3 0 2.7-.7 3.8-1.5l1.5-3.8H45l.3-.9h2.9L46 8.4h1.7l-.3.9zm12.1-6c-2.1 0-3.9 1.3-4.4 2.7-.6 1.6.5 2.7 2.4 2.7 1.6 0 3.7-1 4.3-2.8.3-.8.3-2.6-2.3-2.6m-2.2 6.3c-1.8 0-2.6-.6-3-1.3L50 11.7h3l-.3.9H47l.3-.9h1.6l2.9-8.1h-1.6l.3-.9h2.7l-.4 1.1c1-.7 2.3-1.3 4-1.3 1.5 0 2.8.6 3.1 1.9.1.5.1 1.1-.1 1.6-.7 2.2-3.2 3.7-5.6 3.7m13.9-6.3c-2.3 0-3.9 1-4.4 1.9h7.1c.2-.3.1-1.9-2.7-1.9m-2.2 6.2c-3.6 0-4.4-1.7-3.7-3.5.8-2.1 3.5-3.5 6.3-3.5 3.3 0 4 1.7 3.3 3.6h-8.4l-.1.1c-.3.8 0 1.6.6 2s1.5.5 2.5.5 2.7-.3 4.5-1v.8c-1.5.6-3.3 1-5 1zM0 34.3h7.1c0 2.9 1 3.1 3 3.1h8.6c1.5 0 3-.2 3-2.3 0-2.4-.8-2.5-9.9-2.5C1.2 32.6 0 31.1 0 24.4c0-5 .4-8.8 9.3-8.8h9.8c8.1 0 8.9 3.3 8.9 8.1v.9h-7c0-2-.2-2.8-3.4-2.8H9.8c-1.6 0-2.7.6-2.7 2.1 0 2.4.9 2.5 8.4 2.4 11-.1 13.5.7 13.5 8.7 0 7.4-2.1 8.6-11.5 8.6H9c-6.4 0-9-1.4-9-7.4zM41.5 32h8.9l-4.5-10.1zm-.1-16.4h9.1l12.5 27h-7.8L53 37.8H38.9l-2 4.8H29zm22.6 0h10.7L82.5 33l7.8-17.4H101v27h-6.7V23.2h-.1l-9.1 19.4h-5.2l-9.1-19.4h-.1v19.4H64zm41 18.7h7.1c0 2.9 1 3.1 3 3.1h8.6c1.5 0 3-.2 3-2.3 0-2.4-.8-2.5-9.9-2.5-10.6 0-11.8-1.5-11.8-8.2 0-5 .4-8.8 9.3-8.8h9.8c8.1 0 8.9 3.3 8.9 8.1v.9h-7c0-2-.2-2.8-3.4-2.8h-7.8c-1.6 0-2.7.6-2.7 2.1 0 2.4.9 2.5 8.4 2.4 11 0 13.5.8 13.5 8.7 0 7.4-2.1 8.6-11.5 8.6H114c-6.4 0-9-1.4-9-7.4zM136.2 16h25v6.3h-18v4.4h17v5.6h-17v4.4h18.4v6.6h-25.4zM11.8 5.8l-1 2.6c-1.4.4-3 .7-4.4.7-4.1 0-4.8-2.4-4-4.5C3.3 2.1 6.2 0 9.2 0c1.4 0 2.6.4 3.3 1l.4-1H14l-1.2 3.3h-1.1l.4-1.1c-.6-.7-1.6-1.3-3-1.3-2 0-4.6 1.1-5.6 3.8-.7 1.9 0 3.7 3.2 3.7 1.1 0 1.9-.2 3.3-.5l.7-2h-3l.3-1h5.2l-.3.8z" fill="#303030"/><path d="M52 51h144v31H52z" fill="#00a0ce"/><path d="M75.4 75.3l-4-6.9h-1v6.9H66V56.9h7.6c1.5 0 2.7.3 3.7.8s1.8 1.2 2.3 2.1.8 1.9.8 3c0 1.3-.4 2.5-1.1 3.4s-1.8 1.6-3.2 1.9l4.4 7.2zm-5-10h2.8c.9 0 1.5-.2 1.9-.6s.6-1 .6-1.7-.2-1.3-.6-1.7-1.1-.6-1.9-.6h-2.8zm25.9 2.3c0 .4 0 .8-.1 1.2H86.1c.1 1.1.3 1.9.8 2.4s1.1.7 1.9.7c.7 0 1.2-.2 1.6-.5s.7-.8.9-1.3H96c-.2 1-.6 1.9-1.2 2.7s-1.5 1.4-2.4 1.9c-1 .5-2.1.7-3.3.7-1.4 0-2.7-.3-3.8-.9s-2-1.5-2.6-2.6-.9-2.4-.9-4c0-1.5.3-2.8.9-4 .6-1.1 1.5-2 2.6-2.6s2.4-.9 3.8-.9 2.7.3 3.8.9 1.9 1.4 2.5 2.5c.6 1.2.9 2.5.9 3.8zm-4.5-.6c0-1-.2-1.7-.8-2.1-.5-.5-1.2-.7-2-.7s-1.5.2-2 .7-.8 1.2-.9 2.1zm13.4-6.4c1.9 0 3.4.5 4.7 1.5s2.1 2.4 2.4 4.3h-4.7c-.1-.6-.4-1.1-.9-1.5-.4-.3-1-.5-1.6-.5-.8 0-1.4.3-1.9.9s-.8 1.5-.8 2.7.3 2.1.8 2.7 1.1.9 1.9.9c.7 0 1.2-.2 1.6-.5s.7-.8.9-1.5h4.7c-.3 1.8-1.1 3.2-2.4 4.3-1.3 1-2.8 1.5-4.7 1.5-1.4 0-2.7-.3-3.8-.9s-2-1.5-2.6-2.6-.9-2.4-.9-4c0-1.5.3-2.8.9-4 .6-1.1 1.5-2 2.6-2.6s2.4-.7 3.8-.7zm13.8 2.9c.6-.9 1.3-1.6 2.1-2.1.9-.5 1.8-.8 2.8-.8v4.8h-1.3c-1.2 0-2.1.3-2.7.8s-1 1.4-1 2.5v6.6h-4.4V60.8h4.4v2.7zm21.3-2.7v14.5h-4.5v-2.6c-.4.8-1 1.5-1.9 2-.8.5-1.8.8-2.9.8-1.7 0-3-.6-4-1.7s-1.5-2.6-1.5-4.6v-8.4h4.4v7.9c0 1 .3 1.8.8 2.3s1.2.8 2.1.8 1.6-.3 2.1-.9.8-1.4.8-2.4v-7.7zm11.3 10.7v3.8h-2c-1.7 0-3-.4-4-1.3-.9-.8-1.4-2.2-1.4-4.2v-5.3h-1.9v-3.7h1.9v-3.6h4.4v3.6h2.9v3.7h-2.9v5.4c0 .6.1 1 .4 1.2.2.2.6.3 1.2.3h1.4zm16.3-3.9c0 .4 0 .8-.1 1.2h-10.1c.1 1.1.3 1.9.8 2.4s1.1.7 1.9.7c.7 0 1.2-.2 1.6-.5s.7-.8.9-1.3h4.7c-.2 1-.6 1.9-1.2 2.7s-1.5 1.4-2.4 1.9c-1 .5-2.1.7-3.3.7-1.4 0-2.7-.3-3.8-.9s-2-1.5-2.6-2.6-.9-2.4-.9-4c0-1.5.3-2.8.9-4 .6-1.1 1.5-2 2.6-2.6s2.4-.9 3.8-.9 2.7.3 3.8.9 1.9 1.4 2.5 2.5c.6 1.2.9 2.5.9 3.8zm-4.5-.6c0-1-.2-1.7-.8-2.1s-1.2-.7-2-.7-1.5.2-2 .7-.8 1.2-.9 2.1zm18.1-11l-.5 12.7h-3.8l-.6-12.7zm-.1 14.8v4.4h-4.6v-4.4z" fill="#fff"/></svg>