<?xml version="1.0" encoding="utf-8"?><!--Generator: Adobe Illustrator 24.3.0, SVG Export Plug-In . SVG Version: 6.00 Build 0)--><svg version="1.1" id="Calque_1" xmlns="http://www.w3.org/2000/svg" xmlns:xlink="http://www.w3.org/1999/xlink" x="0px" y="0px" viewBox="0 0 257.8 45" style="enable-background:new 0 0 257.8 45" xml:space="preserve"><style type="text/css">.st0{fill-rule:evenodd;clip-rule:evenodd;fill:#111111;}</style><g><g><g><g><g><path class="st0" d="M246.6,19.2c1.4,0,2.7,0.2,4.1,0.7c1.4,0.5,2.6,1.1,3.6,1.9l-2.3,3.2c-1.8-1.3-3.6-1.9-5.5-1.9
						c-0.8,0-1.4,0.2-1.8,0.5c-0.4,0.4-0.7,0.8-0.7,1.4c0,0.6,0.3,1,0.8,1.4c0.5,0.3,1.8,0.7,3.7,1.2c1.9,0.5,3.4,1.2,4.5,2.1
						c1.1,0.9,1.6,2.3,1.6,4s-0.7,3.2-2.1,4.3c-1.4,1.1-3.2,1.7-5.4,1.7c-3.2,0-6.1-1.2-8.7-3.5l2.7-3.2c2.2,1.9,4.2,2.8,6.1,2.8
						c0.8,0,1.5-0.2,2-0.5c0.5-0.3,0.7-0.8,0.7-1.4s-0.3-1.1-0.8-1.4c-0.5-0.3-1.5-0.7-3-1.1c-2.4-0.5-4.1-1.3-5.2-2.1
						c-1.1-0.9-1.6-2.3-1.6-4.1c0-1.9,0.7-3.3,2.1-4.3C242.7,19.7,244.5,19.2,246.6,19.2z M199.5,19.4l9.9,13v-13h4.5v20.2h-4.5
						l-9.6-12.7v12.7h-4.5V19.4C195.3,19.4,199.5,19.4,199.5,19.4z M182.3,19.2v20.3h-4.6V26.8l-5.3,11.1h-2.7l-9.2-18.7h2.4
						c1.5,0,2.8,0.2,3.4,1.6l4.7,9.6l5.1-11.2L182.3,19.2L182.3,19.2z M191,19.3v20.2h-4.5V19.3H191z M225.3,19.3
						c3.6,0,6.4,0.9,8.3,2.6c1.9,1.8,2.9,4.2,2.9,7.4s-0.9,5.6-2.8,7.5s-4.7,2.8-8.6,2.8h-6.9V19.3H225.3L225.3,19.3z M225.2,23.2
						h-2.5v12.3h2.9c2.1,0,3.6-0.5,4.8-1.6c1.1-1,1.7-2.6,1.7-4.5c0-2-0.6-3.5-1.7-4.6C229.2,23.8,227.5,23.2,225.2,23.2L225.2,23.2
						z M149.9,5.5c3.2,0,7,1.9,7,6.6c0,2.5-1.5,4.4-2.9,5.5l5.2,10.5h-2.3c-1.5,0-2.5-0.1-3.1-1.4l-3.7-7.5h-5l0,6.5h-4.6V5.5
						L149.9,5.5z M109.8,5.5c2.9,0,5.5,0.9,7.6,2.8l-2.4,3.3c-0.9-0.8-1.8-1.3-2.5-1.6c-0.8-0.3-1.6-0.4-2.5-0.4
						c-1.7,0-3.2,0.6-4.4,1.7c-1.2,1.1-1.8,2.6-1.8,4.5c0,1.9,0.6,3.3,1.7,4.5c1.1,1.1,2.5,1.7,4.1,1.7c1.6,0,2.9-0.3,3.9-0.9v-2.9
						h-2.6v-1.6c0-1.2,0.4-2.3,1.6-2.3h5.6v8.3c-2,2.2-4.8,3.3-8.4,3.3c-3,0-5.5-1-7.5-2.9c-2-1.9-3-4.3-3-7.3s1-5.4,3.1-7.3
						C104.3,6.5,106.8,5.5,109.8,5.5L109.8,5.5z M55.9,5.5c2.9,0,5.5,0.9,7.6,2.8l-2.4,3.3c-0.9-0.8-1.8-1.3-2.5-1.6
						c-0.8-0.3-1.6-0.4-2.5-0.4c-1.7,0-3.2,0.6-4.4,1.7c-1.2,1.1-1.8,2.6-1.8,4.5c0,1.9,0.6,3.3,1.7,4.5c1.1,1.1,2.5,1.7,4.1,1.7
						c1.6,0,2.9-0.3,3.9-0.9v-2.9H57v-1.6c0-1.2,0.4-2.3,1.6-2.3h5.6v8.3c-2,2.2-4.8,3.3-8.4,3.3c-3,0-5.5-1-7.5-2.9
						c-2-1.9-3-4.3-3-7.3s1-5.4,3.1-7.3C50.4,6.5,52.9,5.5,55.9,5.5z M73.3,5.5v20.2h-4.5V5.5H73.3z M81.8,5.5l9.9,13v-13h4.5v20.2
						h-4.5l-9.6-12.7v12.7h-4.5V5.5H81.8z M136.6,5.5v4h-10.1v4.2h9.1v3.8h-9.1v4.2H137v4h-14.9V5.5L136.6,5.5L136.6,5.5z
						 M149.6,9.5H145v5.9l4.6,0h0c0.3,0,2.8-0.1,2.7-3C152.2,9.7,150.1,9.5,149.6,9.5L149.6,9.5z M33.3,43.3h-0.4
						c-1.5,0-2.9-0.8-3.5-2.2l-8.1-16.5c-0.7-1.3-2-2.2-3.5-2.2h-4.3c-1.5,0-2.9-0.9-3.5-2.2l-6.4-13C2.4,4.7,4.3,1.6,7.2,1.6h0.4
						c1.5,0,2.9,0.8,3.5,2.2l8.1,16.5c0.7,1.3,2,2.2,3.5,2.2H27c1.5,0,2.9,0.9,3.5,2.2l6.4,13C38.1,40.3,36.2,43.3,33.3,43.3"/></g></g></g></g></g></svg>