<svg xmlns="http://www.w3.org/2000/svg" xmlns:xlink="http://www.w3.org/1999/xlink" viewBox="0 0 397.8 164"><defs><path id="a" d="M.5.2h397.4V164H.5z"/></defs><clipPath id="b"><use xlink:href="#a" overflow="visible"/></clipPath><g clip-path="url(#b)"><defs><path id="c" transform="rotate(-30.291 199.2 82.086)" d="M-13.7-88.9h425.8V253H-13.7z"/></defs><clipPath id="d"><use xlink:href="#c" overflow="visible"/></clipPath><path clip-path="url(#d)" fill="#002e5a" d="M-70.9-172.9h540.1v510H-70.9z"/><path d="M126.3 135.9C206.4 273 361.2 331.6 472.2 266.8h-1.9v-434.1h5.6c-3.2-3.3-6.5-6.5-9.9-9.7v3.1H121.9v-.4c-2.3 3.2-4.4 6.4-6.5 9.8-16.7 26.6-27.8 57.4-32.8 90.5-10.1 66.1 3.6 141.3 43.7 209.9z" clip-path="url(#d)" fill="#002e5a"/><path d="M128.1 134.8c79.4 135.9 232.8 193.9 342.8 129.7h-.6v-430.2h4.3c-3.2-3.3-6.5-6.5-9.8-9.6v1.3H127.2v-3.3c-1.2 1.5-2.3 3.1-3.4 4.7-2.2 3.2-4.4 6.4-6.5 9.7-16.5 26.4-27.5 56.9-32.5 89.7-10 65.6 3.6 140.1 43.3 208z" clip-path="url(#d)" fill="#002e5a"/><path d="M129.9 133.8C208.5 268.4 360.6 326 469.5 262.3c1.7-1 3.4-2 5-3.1h-4.3V-164h2.9c-3.2-3.3-6.4-6.4-9.7-9.5-1.6-1.5-3.3-3.1-5-4.6v4.1h-326v-6.1c-4.8 6-9.2 12.3-13.3 18.8-16.3 26.2-27.1 56.5-32.1 89-9.9 64.9 3.6 138.8 42.9 206.1z" clip-path="url(#d)" fill="#002f5b"/><path d="M131.8 132.7C209.7 266.1 360.3 323.1 468.2 260c1.7-1 3.4-2 5-3h-3v-419.3h1.6c-6.3-6.4-12.8-12.6-19.5-18.3v6.7h-318v-4.2c-4.7 5.9-9.2 12.1-13.2 18.6-16.2 25.9-27 55.9-31.9 88C79.4-7.1 92.8 66 131.8 132.7z" clip-path="url(#d)" fill="#002f5b"/><path d="M133.6 131.6C210.8 263.7 360 320.2 466.9 257.8c3.3-2 6.6-4 9.8-6.1h-6.4v-412.2h.2c-6.3-6.4-12.7-12.5-19.3-18.2v4.8h-315v-2.4c-4.7 5.9-9.1 12-13.1 18.4-16.1 25.6-26.7 55.3-31.6 87.2C81.7-6.9 95 65.6 133.6 131.6z" clip-path="url(#d)" fill="#002f5c"/><path d="M135.4 130.6c76.4 130.9 224.3 186.8 330.2 125 3.3-1.9 6.5-4 9.7-6.1h-5V-154h3.5c-1.5-1.6-3.1-3.2-4.6-4.8-6.2-6.3-12.6-12.3-19.2-18v3H138v-.5c-4.7 5.8-9 11.9-13 18.3-15.9 25.4-26.5 54.8-31.3 86.4C84-6.7 97.2 65.1 135.4 130.6z" clip-path="url(#d)" fill="#00305c"/><path d="M137.2 129.5c75.7 129.6 222.1 185 327 123.8 3.3-1.9 6.5-3.9 9.6-6h-3.6v-394.8h6.6c-3-3.3-6-6.5-9.1-9.6-6.1-6.3-12.5-12.2-19-17.8v1.1H143.3v-3c-1.2 1.4-2.4 2.8-3.5 4.3-4.6 5.8-8.9 11.8-12.8 18.1-15.8 25.2-26.2 54.3-31 85.6-9.6 62.4 3.4 133.5 41.2 198.3z" clip-path="url(#d)" fill="#00305d"/><path d="M139.1 128.4c75 128.4 220 183.3 323.9 122.6 3.2-1.9 6.4-3.9 9.5-6h-2.2v-391h5.2c-2.9-3.3-5.9-6.4-9-9.5-6.1-6.2-12.4-12.1-18.8-17.7-1.6-1.4-3.2-2.8-4.9-4.1v3.4H148.7v-5.2c-2.4 2.7-4.8 5.5-7.1 8.3-4.6 5.7-8.8 11.7-12.7 17.9-15.6 24.9-26 53.8-30.7 84.7-9.5 62 3.4 132.4 40.9 196.6z" clip-path="url(#d)" fill="#00315e"/><path d="M140.9 127.4c74.3 127.1 217.9 181.5 320.7 121.4 3.2-1.9 6.4-3.8 9.4-5.9h-.8v-387.2h3.7c-2.9-3.2-5.9-6.4-8.9-9.5-6-6.1-12.2-12-18.6-17.5-3.2-2.8-6.4-5.4-9.7-8v5.4H150.4v-3.3c-2.4 2.7-4.8 5.4-7 8.3-4.5 5.6-8.7 11.6-12.6 17.7-15.5 24.7-25.7 53.2-30.4 83.9-9.4 61.4 3.4 131.1 40.5 194.7z" clip-path="url(#d)" fill="#00325e"/><path d="M142.7 126.3C216.3 252.2 358.4 306 460.3 246.5c3.2-1.9 6.3-3.8 9.3-5.8 1.5-1 3-2.1 4.5-3.1h-3.8v-380.3h2.3c-2.9-3.2-5.8-6.3-8.8-9.4-6-6.1-12.1-11.9-18.4-17.3-3.2-2.7-6.4-5.4-9.6-7.9v3.5H152.1v-1.4c-2.4 2.7-4.7 5.4-7 8.2-4.5 5.6-8.6 11.5-12.5 17.6-15.3 24.4-25.5 52.7-30.1 83.1-9.2 60.6 3.5 129.6 40.2 192.6z" clip-path="url(#d)" fill="#00325f"/><path d="M144.5 125.2c72.8 124.6 213.6 177.9 314.5 119 6.3-3.7 12.3-7.7 18-12.1h-6.7v-373.3h.8c-2.9-3.2-5.8-6.3-8.7-9.3-5.9-6-12-11.7-18.3-17.1-3.1-2.7-6.3-5.3-9.5-7.9v1.5H157.5v-3.3l-3.6 3.9c-2.4 2.6-4.7 5.3-6.9 8.1-4.4 5.5-8.6 11.3-12.3 17.4-15.2 24.2-25.2 52.2-29.8 82.3-9.3 60.1 3.2 128.5 39.6 190.8z" clip-path="url(#d)" fill="#003360"/><path d="M146.4 124.2c72 123.4 211.4 176.1 311.3 117.8 6.2-3.6 12.2-7.6 17.8-12h-5.2v-364.8h3.6l-4.2-4.8c-2.8-3.1-5.7-6.2-8.6-9.2-5.8-6-11.9-11.6-18.1-17-6.2-5.3-12.5-10.4-19-15.1v6.9H162.9v-5.1c-10 9.9-18.8 20.9-26.3 32.8-15 23.9-25 51.7-29.5 81.5-9.2 59.6 3.2 127.3 39.3 189z" clip-path="url(#d)" fill="#003360"/><path d="M148.2 123.1c71.3 122.1 209.3 174.4 308.2 116.6 6.2-3.6 12.1-7.6 17.6-11.8h-3.7v-356.3h6.2c-10.8-13-22.4-24.8-34.7-35.4-6.1-5.3-12.4-10.3-18.8-14.9v4.9H164.5v-3.1c-9.9 9.8-18.6 20.7-26.1 32.5-14.9 23.7-24.7 51.2-29.2 80.6-8.9 58.8 3.3 125.8 39 186.9z" clip-path="url(#d)" fill="#003461"/><path d="M150 122c70.6 120.9 207.2 172.6 305 115.4 6.1-3.6 11.9-7.5 17.5-11.7h-2.2V-127h4.7c-10.7-12.9-22.2-24.6-34.3-35.1-6.1-5.2-12.3-10.2-18.6-14.8v2.9H166.2v-1.1c-9.8 9.7-18.4 20.5-25.8 32.2-14.7 23.5-24.4 50.6-28.9 79.8C102.6-4.7 114.7 61.6 150 122z" clip-path="url(#d)" fill="#003462"/><path d="M151.8 121c69.9 119.7 205 170.8 301.9 114.2 6.1-3.5 11.8-7.4 17.3-11.6h-.7v-349.1h3.2c-10.6-12.7-22-24.3-34-34.7-6-5.2-12.2-10.1-18.4-14.6v.9H175.4v-6.1c-2.6 2.2-5.1 4.6-7.5 6.9-9.7 9.6-18.2 20.2-25.5 31.8-14.6 23.2-24.2 50.1-28.6 79-8.9 57.8 3.1 123.4 38 183.3z" clip-path="url(#d)" fill="#003563"/><path d="M153.7 119.9c69.2 118.4 202.9 169 298.7 113.1 6-3.5 11.7-7.3 17.1-11.5 1.4-1 2.7-2.1 4-3.2h-3.2V-124h1.6c-10.5-12.6-21.7-24.1-33.6-34.3-5.9-5.1-12-10-18.3-14.5-3.1-2.3-6.3-4.4-9.4-6.5v5.4H177v-4c-2.6 2.2-5 4.5-7.4 6.9-9.6 9.5-18.1 20-25.3 31.5-14.4 23-23.9 49.6-28.3 78.2-8.8 57 3.1 122 37.7 181.2z" clip-path="url(#d)" fill="#003663"/><path d="M155.5 118.8C223.9 236 356.3 286.1 451.1 230.7c5.9-3.5 11.6-7.3 16.9-11.3 2.7-2 5.3-4.2 7.8-6.4h-5.5v-335.4h.1c-10.4-12.5-21.5-23.8-33.3-34-5.9-5.1-11.9-9.9-18.1-14.3-3.1-2.2-6.2-4.4-9.3-6.5v3.3H178.5v-2c-2.5 2.2-5 4.5-7.4 6.8-9.5 9.4-17.9 19.8-25 31.2-14.3 22.7-23.7 49.1-28 77.3-8.6 56.6 3.2 120.8 37.4 179.4z" clip-path="url(#d)" fill="#003664"/><path d="M157.3 117.8C225 233.7 356 283.2 449.8 228.4c5.9-3.4 11.4-7.2 16.7-11.2 2.6-2 5.2-4.1 7.7-6.3h-4v-322.4h6.1c-2.5-3.2-5-6.4-7.5-9.5-10.2-12.3-21.3-23.6-32.9-33.6-5.8-5-11.8-9.7-17.9-14.2-3-2.2-6.1-4.3-9.2-6.4v1.2h-221v-6.2c-5.3 4.1-10.3 8.4-15 13-9.4 9.3-17.7 19.6-24.7 30.9-14.1 22.5-23.4 48.5-27.7 76.5-8.6 56 3.1 119.6 36.9 177.6z" clip-path="url(#d)" fill="#003765"/><path d="M159.2 116.7c67 114.7 196.5 163.7 289.3 109.5 5.8-3.4 11.3-7.1 16.6-11.1 2.6-2 5.2-4.1 7.6-6.2h-2.4V-110h4.5c-2.4-3.2-4.9-6.3-7.4-9.4-10.1-12.2-21-23.3-32.6-33.3-11.5-9.9-23.6-18.7-36.1-26.2v5H189.3v-4.1c-5.2 4-10.2 8.3-14.8 12.9-9.3 9.2-17.5 19.4-24.5 30.5-14 22.2-23.2 48-27.4 75.7-8.5 55.4 3.1 118.3 36.6 175.6z" clip-path="url(#d)" fill="#003866"/><path d="M161 115.6C227.2 229 355.3 277.5 447.1 223.9c5.7-3.4 11.2-7 16.4-11 2.6-2 5.1-4 7.6-6.2h-.8v-315.5h2.9c-2.4-3.2-4.9-6.2-7.4-9.3-10-12.1-20.8-23.1-32.2-32.9s-23.3-18.5-35.7-25.9v2.9H190.8v-1.9c-5.2 4-10.1 8.2-14.7 12.8-9.2 9.1-17.3 19.2-24.2 30.2-13.8 22-22.9 47.5-27.1 74.9-8.3 54.7 3.1 116.9 36.2 173.6z" clip-path="url(#d)" fill="#003867"/><path d="M162.8 114.6c65.5 112.2 192.2 160.1 283 107.1 11.3-6.6 21.6-14.5 30.7-23.5h-6.3v-305.5h1.3c-2.4-3.1-4.8-6.2-7.3-9.2-9.9-11.9-20.6-22.8-31.8-32.5-11.3-9.7-23.1-18.3-35.3-25.6v.7H200.2v-5.4c-2.7 1.8-5.3 3.7-7.9 5.7-5.1 3.9-10 8.1-14.5 12.6-9.1 9-17.1 19-23.9 29.9-13.7 21.8-22.7 47-26.8 74-8.3 54 2.9 115.6 35.7 171.7z" clip-path="url(#d)" fill="#003967"/><path d="M164.6 113.5c64.8 110.9 190.1 158.3 279.9 105.9 11.2-6.6 21.4-14.4 30.4-23.2h-4.6V-96.4h6.6c-4.5-6.4-9.2-12.6-14.1-18.5-9.8-11.8-20.4-22.6-31.5-32.2-11.1-9.6-22.8-18.1-34.9-25.4-3-1.8-6.1-3.6-9.1-5.2v3.8H201.6v-3.2c-2.7 1.8-5.3 3.7-7.8 5.6-5.1 3.9-9.9 8-14.4 12.5-9 8.9-16.9 18.8-23.7 29.5-13.5 21.5-22.4 46.5-26.5 73.2-8.1 53.5 3 114.3 35.4 169.8z" clip-path="url(#d)" fill="#003a68"/><path d="M166.5 112.4c64.1 109.7 188 156.6 276.7 104.7 11.1-6.5 21.1-14.2 30-23h-2.9V-95.2h4.9c-4.4-6.4-9.1-12.5-14-18.3-9.7-11.7-20.1-22.3-31.1-31.8s-22.6-17.9-34.5-25.1c-6-3.6-12-6.9-18.2-9.9v6.3H211.2v-6.1c-88.8 51.9-108.8 182.8-44.7 292.5z" clip-path="url(#d)" fill="#003a69"/><path d="M168.3 111.4c63.3 108.4 185.8 154.8 273.6 103.5 11-6.4 20.9-14 29.7-22.7h-1.3V-93.9h3.2c-4.4-6.3-9-12.3-13.8-18.1-9.6-11.5-19.9-22.1-30.8-31.4-10.9-9.4-22.3-17.7-34.1-24.8-5.9-3.6-11.9-6.8-18-9.8v4H212.5v-3.9c-87.8 51.4-107.6 180.8-44.2 289.3z" clip-path="url(#d)" fill="#003b6a"/><path d="M170.1 110.3c62.6 107.2 183.7 153 270.4 102.3 10.8-6.3 20.6-13.9 29.3-22.4 2.2-2.1 4.3-4.3 6.3-6.6h-6V-92.6h1.6c-4.3-6.2-8.9-12.2-13.6-17.9-9.5-11.4-19.7-21.8-30.4-31.1-10.7-9.2-22-17.4-33.7-24.4-5.8-3.5-11.8-6.7-17.8-9.7v1.8H213.8v-1.6c-86.7 50.6-106.3 178.6-43.7 285.8z" clip-path="url(#d)" fill="#003c6b"/><path d="M171.9 109.2c61.9 105.9 181.6 151.2 267.3 101.2 10.7-6.3 20.4-13.7 29-22.2 2.2-2.1 4.2-4.3 6.3-6.5h-4.2V-81.9h6.2c-2-3.2-4.1-6.3-6.3-9.4-4.3-6.1-8.8-12-13.5-17.7-9.4-11.3-19.4-21.5-30.1-30.7-10.6-9.2-21.8-17.3-33.3-24.2-5.8-3.5-11.6-6.7-17.6-9.5-3-1.4-5.9-2.8-8.9-4.1v3.6H223.3v-3.8c-2.7 1.4-5.5 2.9-8.1 4.4-85.8 50.1-105.1 176.6-43.3 282.5z" clip-path="url(#d)" fill="#003d6c"/><path d="M173.8 108.2c61.2 104.7 179.4 149.5 264.1 100 10.6-6.2 20.2-13.6 28.7-21.9 2.1-2.1 4.2-4.2 6.2-6.5h-2.5V-80.7h4.4c-2-3.2-4.1-6.2-6.2-9.3-4.2-6.1-8.7-11.9-13.3-17.5-9.3-11.1-19.2-21.3-29.7-30.4-21-18.1-44.2-32-68.1-41.1v4.9H232.7v-5.3c-5.5 2.4-11 5.1-16.3 8.2-84.7 49.7-103.8 174.7-42.6 279.4z" clip-path="url(#d)" fill="#003d6c"/><path d="M175.6 107.1c60.4 103.5 177.3 147.7 261 98.8 10.5-6.1 19.9-13.4 28.3-21.6 4.2-4.1 8.1-8.5 11.8-13.1h-6.5V-79.5h2.7c-2-3.1-4-6.2-6.1-9.2-4.2-6-8.6-11.7-13.2-17.3-9.1-11-19-21-29.4-30-20.8-17.9-43.6-31.6-67.3-40.6v2.6H233.8v-2.9c-5.5 2.3-10.8 5-16.1 8.1C134-119.9 115.2 3.6 175.6 107.1z" clip-path="url(#d)" fill="#003e6d"/><path d="M177.4 106c59.7 102.2 175.1 145.9 257.9 97.6 10.3-6 19.7-13.2 28-21.4 4.2-4.1 8.1-8.4 11.7-12.9h-4.7V-68.9h6.7c-29.9-51.1-73.6-87.6-120.3-105.2v.2H251.4v-6.5c-11.2 3.2-22 7.8-32.4 13.9C136.4-118.2 117.7 3.8 177.4 106z" clip-path="url(#d)" fill="#003f6e"/><path d="M179.2 105c59 101 173 144.1 254.7 96.4 10.2-6 19.4-13.1 27.6-21.1 4.1-4 8-8.3 11.5-12.8h-2.9V-67.9h4.8c-29.5-50.5-72.7-86.5-118.8-104-5.8-2.2-11.6-4.1-17.4-5.7v3.6h-86.5v-4c-11.1 3.2-21.8 7.7-32 13.7-81.5 47.8-99.9 168.3-41 269.3z" clip-path="url(#d)" fill="#00406f"/><path d="M181.1 103.9c58.2 99.7 170.9 142.3 251.6 95.2 10.1-5.9 19.2-12.9 27.3-20.9 4.1-4 7.9-8.2 11.4-12.6h-1.1V-66.8h3c-29.1-49.9-71.8-85.4-117.4-102.7-11.4-4.3-22.9-7.5-34.5-9.4v5h-68.1v-1.6c-10.9 3.2-21.5 7.6-31.6 13.5-80.7 47.1-98.9 166.2-40.6 265.9z" clip-path="url(#d)" fill="#004070"/><path d="M182.9 102.8c57.5 98.5 168.7 140.6 248.4 94 10-5.8 19-12.7 27-20.6 4-3.9 7.8-8.1 11.3-12.5 1.8-2.2 3.4-4.4 5.1-6.7h-4.3V-65.7h1.2c-28.8-49.2-70.9-84.4-115.9-101.4-22.5-8.5-45.6-12.5-68.2-11.4s-44.4 7.2-64.3 18.8c-79.9 46.5-97.8 164.1-40.3 262.5z" clip-path="url(#d)" fill="#004171"/><path d="M184.7 101.8C241.5 199 351.3 240.5 430 194.6c9.8-5.7 18.7-12.6 26.6-20.3 4-3.9 7.7-8 11.1-12.3 1.7-2.2 3.4-4.4 5-6.6h-2.5V-55.5h4.5c-1.6-3.1-3.3-6.1-5.1-9.2-28.4-48.6-70-83.3-114.4-100.1-22.2-8.4-45.1-12.3-67.3-11.3-22.2 1-43.9 7.1-63.5 18.6-78.7 46-96.5 162-39.7 259.3z" clip-path="url(#d)" fill="#004272"/><path d="M186.5 100.7c56.1 96 164.5 137 242.1 91.6 19.4-11.3 35.1-27 46.8-45.6h-5.2V-54.5h2.6c-1.6-3-3.3-6.1-5-9-28-48-69.1-82.2-113-98.8s-90.3-15.5-129.2 7.2C148-109.9 130.5 4.7 186.5 100.7z" clip-path="url(#d)" fill="#004373"/><path d="M188.4 99.6c55.3 94.7 162.3 135.2 239 90.4 19.2-11.2 34.6-26.7 46.2-45h-3.2V-44.6h5.2c-2.9-6-6.1-12-9.5-18-27.7-47.4-68.2-81.2-111.5-97.5S265.3-175.4 227-153c-76.7 44.8-94 157.9-38.6 252.6z" clip-path="url(#d)" fill="#004374"/><path d="M190.2 98.6C244.8 192 350.4 232 426 187.8c18.9-11 34.2-26.3 45.5-44.4h-1.3V-43.7h3.3c-2.9-6-6-11.9-9.4-17.7-27.3-46.7-67.4-80.1-110-96.3s-88-15.1-125.8 7c-75.6 44.2-92.7 155.8-38.1 249.3z" clip-path="url(#d)" fill="#004475"/><path d="M192 97.5c53.9 92.2 158.1 131.7 232.7 88.1 18.7-10.9 33.7-26 44.9-43.9 1.4-2.2 2.7-4.5 4-6.8h-3.4V-42.9h1.3c-2.8-5.9-5.9-11.7-9.3-17.5-26.9-46.1-66.5-79-108.6-95s-86.8-14.9-124.1 6.9C155-104.9 138.2 5.3 192 97.5z" clip-path="url(#d)" fill="#004576"/><path d="M193.9 96.4c53.1 91 155.9 129.9 229.6 86.9 18.4-10.8 33.3-25.6 44.3-43.3 2.8-4.4 5.3-9 7.6-13.7h-5.1V-24.5h6.9c-4.5-11.8-10-23.4-16.7-34.8-26.6-45.5-65.6-78-107.1-93.7s-85.6-14.7-122.5 6.8c-73.6 43-90.2 151.6-37 242.6z" clip-path="url(#d)" fill="#004677"/><path d="M195.7 95.4c52.4 89.7 153.8 128.1 226.4 85.7 18.2-10.6 32.8-25.3 43.7-42.7 2.7-4.4 5.2-8.9 7.5-13.6h-3V-24h4.8c-4.4-11.6-9.9-23.1-16.5-34.3-26.2-44.9-64.7-76.9-105.6-92.4s-84.5-14.5-120.8 6.7c-72.6 42.5-88.9 149.6-36.5 239.4z" clip-path="url(#d)" fill="#004778"/><path d="M197.5 94.3c51.7 88.5 151.6 126.3 223.3 84.5 17.9-10.5 32.3-24.9 43.1-42.1 2.7-4.3 5.2-8.8 7.4-13.4h-1V-23.4h2.8c-4.4-11.4-9.8-22.8-16.2-33.8-25.8-44.2-63.8-75.8-104.2-91.1s-83.3-14.3-119.1 6.6C162-99.9 145.8 5.8 197.5 94.3z" clip-path="url(#d)" fill="#004779"/><path d="M199.3 93.2c51 87.2 149.5 124.5 220.1 83.3 17.7-10.3 31.9-24.6 42.5-41.5 5.3-8.5 9.7-17.6 13.2-27.2h-4.9V-22.8h.7c-4.3-11.3-9.6-22.4-16-33.4-51-87.2-149.5-124.5-220.1-83.3S148.4 6 199.3 93.2z" clip-path="url(#d)" fill="#00487a"/><path d="M201.2 92.2c50.2 86 147.4 122.8 217 82.1 17.4-10.2 31.4-24.2 41.9-40.9 5.2-8.3 9.6-17.3 13-26.9h-2.8v-112h4.3c-1.6-5.6-3.5-11.2-5.6-16.7-4.2-11.1-9.5-22.1-15.8-32.9-50.2-86-147.4-122.8-217-82.1s-85.3 143.4-35 229.4z" clip-path="url(#d)" fill="#00497b"/><path d="M203 91.1c49.5 84.8 145.2 121 213.8 80.9 17.1-10 31-23.9 41.3-40.3 5.2-8.2 9.4-17.1 12.8-26.5h-.7V11.4h6.2c-4.4-22-12.8-44.2-25.1-65.4-49.5-84.8-145.2-121-213.8-80.9s-84 141.2-34.5 226z" clip-path="url(#d)" fill="#004a7c"/><path d="M204.8 90c48.8 83.5 143.1 119.2 210.7 79.7 33.8-19.7 54.5-54.5 60.7-94.8h-5.9V11.5h4c-4.4-21.7-12.6-43.6-24.8-64.5-48.8-83.5-143.1-119.2-210.7-79.7S156 6.5 204.8 90z" clip-path="url(#d)" fill="#004b7d"/><path d="M206.6 89c48.1 82.3 141 117.4 207.5 78.5 33.3-19.4 53.7-53.7 59.7-93.4h-3.7V11.6h1.8c-4.3-21.4-12.4-42.9-24.4-63.5-48.1-82.3-141-117.4-207.5-78.5S158.6 6.7 206.6 89z" clip-path="url(#d)" fill="#004b7e"/><path d="M208.5 87.9c47.3 81 138.8 115.6 204.4 77.4 32.8-19.1 52.9-52.9 58.8-92 3-19.5 2.4-40.4-1.8-61.5s-12.2-42.3-24-62.5c-47.3-81-138.8-115.6-204.4-77.4s-80.4 135-33 216z" clip-path="url(#d)" fill="#004c7f"/><path d="M210.3 86.8C256.9 166.6 347 200.7 411.5 163c32.3-18.9 52.1-52.1 57.9-90.6S467.3-9.8 444-49.7c-46.6-79.8-136.7-113.9-201.2-76.2s-79.1 133-32.5 212.7z" clip-path="url(#d)" fill="#004d80"/><path d="M212.1 85.8c45.9 78.5 134.6 112.1 198.1 75 31.8-18.6 51.2-51.3 57-89.2s-2.1-81-25-120.2c-45.9-78.5-134.6-112.1-198.1-75s-77.9 130.8-32 209.4z" clip-path="url(#d)" fill="#004e81"/><path d="M213.9 84.7C259 162 346.3 195 408.9 158.5c31.3-18.3 50.4-50.5 56.1-87.8S463-9 440.4-47.6c-45.1-77.3-132.4-110.3-195-73.8S168.8 7.4 213.9 84.7z" clip-path="url(#d)" fill="#004f82"/><path d="M215.8 83.6c44.4 76 130.3 108.5 191.8 72.6 30.8-18 49.6-49.6 55.2-86.3 5.6-36.7-2-78.4-24.2-116.4-44.4-76-130.3-108.5-191.8-72.6s-75.4 126.7-31 202.7z" clip-path="url(#d)" fill="#005083"/><path d="M217.6 82.6c43.7 74.8 128.2 106.8 188.7 71.4 30.3-17.7 48.8-48.8 54.3-84.9 5.5-36.1-2-77.1-23.8-114.5-43.7-74.8-128.2-106.8-188.7-71.4S173.9 7.8 217.6 82.6z" clip-path="url(#d)" fill="#005184"/><path d="M219.4 81.5c43 73.5 126 105 185.5 70.2 29.8-17.4 48-48 53.4-83.5s-2-75.8-23.4-112.6c-43-73.5-126-105-185.5-70.2S176.5 8 219.4 81.5z" clip-path="url(#d)" fill="#005185"/><ellipse transform="rotate(-30.291 327.16 18.547)" cx="327.2" cy="18.5" rx="122.7" ry="151.6" clip-path="url(#d)" fill="#005286"/><ellipse transform="rotate(-30.291 327.16 18.547)" cx="327.2" cy="18.5" rx="120.6" ry="149" clip-path="url(#d)" fill="#005387"/><ellipse transform="rotate(-30.291 327.16 18.547)" cx="327.2" cy="18.5" rx="118.4" ry="146.4" clip-path="url(#d)" fill="#005488"/><ellipse transform="rotate(-30.291 327.16 18.547)" cx="327.2" cy="18.5" rx="116.3" ry="143.7" clip-path="url(#d)" fill="#005589"/><ellipse transform="rotate(-30.291 327.16 18.547)" cx="327.2" cy="18.5" rx="114.2" ry="141.1" clip-path="url(#d)" fill="#00568a"/><ellipse transform="rotate(-30.291 327.16 18.547)" cx="327.2" cy="18.5" rx="112.1" ry="138.5" clip-path="url(#d)" fill="#00578b"/><ellipse transform="rotate(-30.291 327.16 18.547)" cx="327.2" cy="18.5" rx="110" ry="135.9" clip-path="url(#d)" fill="#00588c"/><ellipse transform="rotate(-30.291 327.16 18.547)" cx="327.2" cy="18.5" rx="107.9" ry="133.3" clip-path="url(#d)" fill="#00588d"/><ellipse transform="rotate(-30.291 327.16 18.547)" cx="327.2" cy="18.5" rx="105.8" ry="130.7" clip-path="url(#d)" fill="#00598e"/><ellipse transform="rotate(-30.291 327.16 18.547)" cx="327.2" cy="18.5" rx="103.6" ry="128.1" clip-path="url(#d)" fill="#005a8f"/><ellipse transform="rotate(-30.291 327.16 18.547)" cx="327.2" cy="18.5" rx="101.5" ry="125.5" clip-path="url(#d)" fill="#005b91"/><ellipse transform="rotate(-30.291 327.16 18.547)" cx="327.2" cy="18.5" rx="99.4" ry="122.8" clip-path="url(#d)" fill="#005c92"/><ellipse transform="rotate(-30.291 327.16 18.547)" cx="327.2" cy="18.5" rx="97.3" ry="120.2" clip-path="url(#d)" fill="#005d93"/><ellipse transform="rotate(-30.291 327.16 18.547)" cx="327.2" cy="18.5" rx="95.2" ry="117.6" clip-path="url(#d)" fill="#005e94"/><ellipse transform="rotate(-30.291 327.16 18.547)" cx="327.2" cy="18.5" rx="93.1" ry="115" clip-path="url(#d)" fill="#005f95"/><ellipse transform="rotate(-30.291 327.16 18.547)" cx="327.2" cy="18.5" rx="90.9" ry="112.4" clip-path="url(#d)" fill="#006096"/><ellipse transform="rotate(-30.291 327.16 18.547)" cx="327.2" cy="18.5" rx="88.8" ry="109.8" clip-path="url(#d)" fill="#006197"/><ellipse transform="rotate(-30.291 327.16 18.547)" cx="327.2" cy="18.5" rx="86.7" ry="107.2" clip-path="url(#d)" fill="#006298"/><ellipse transform="rotate(-30.291 327.16 18.547)" cx="327.2" cy="18.5" rx="84.6" ry="104.5" clip-path="url(#d)" fill="#006299"/><ellipse transform="rotate(-30.291 327.16 18.547)" cx="327.2" cy="18.5" rx="82.5" ry="101.9" clip-path="url(#d)" fill="#00639b"/><ellipse transform="rotate(-30.291 327.16 18.547)" cx="327.2" cy="18.5" rx="80.4" ry="99.3" clip-path="url(#d)" fill="#00649c"/><ellipse transform="rotate(-30.291 327.16 18.547)" cx="327.2" cy="18.5" rx="78.3" ry="96.7" clip-path="url(#d)" fill="#00659d"/><ellipse transform="rotate(-30.291 327.16 18.547)" cx="327.2" cy="18.5" rx="76.1" ry="94.1" clip-path="url(#d)" fill="#00669e"/><ellipse transform="rotate(-30.291 327.16 18.547)" cx="327.2" cy="18.5" rx="74" ry="91.5" clip-path="url(#d)" fill="#00679f"/><ellipse transform="rotate(-30.291 327.16 18.547)" cx="327.2" cy="18.5" rx="71.9" ry="88.9" clip-path="url(#d)" fill="#0068a0"/><ellipse transform="rotate(-30.291 327.16 18.547)" cx="327.2" cy="18.5" rx="69.8" ry="86.2" clip-path="url(#d)" fill="#0069a1"/><ellipse transform="rotate(-30.291 327.16 18.547)" cx="327.2" cy="18.5" rx="67.7" ry="83.6" clip-path="url(#d)" fill="#006aa3"/><ellipse transform="rotate(-30.291 327.16 18.547)" cx="327.2" cy="18.5" rx="65.6" ry="81" clip-path="url(#d)" fill="#006ba4"/><ellipse transform="rotate(-30.291 327.16 18.547)" cx="327.2" cy="18.5" rx="63.5" ry="78.4" clip-path="url(#d)" fill="#006ca5"/><ellipse transform="rotate(-30.291 327.16 18.547)" cx="327.2" cy="18.5" rx="61.3" ry="75.8" clip-path="url(#d)" fill="#006da6"/><ellipse transform="rotate(-30.291 327.16 18.547)" cx="327.2" cy="18.5" rx="59.2" ry="73.2" clip-path="url(#d)" fill="#006ea7"/><ellipse transform="rotate(-30.291 327.16 18.547)" cx="327.2" cy="18.5" rx="57.1" ry="70.6" clip-path="url(#d)" fill="#006fa8"/><ellipse transform="rotate(-30.291 327.16 18.547)" cx="327.2" cy="18.5" rx="55" ry="68" clip-path="url(#d)" fill="#0070aa"/><ellipse transform="rotate(-30.291 327.16 18.547)" cx="327.2" cy="18.5" rx="52.9" ry="65.3" clip-path="url(#d)" fill="#0071ab"/><ellipse transform="rotate(-30.291 327.16 18.547)" cx="327.2" cy="18.5" rx="50.8" ry="62.7" clip-path="url(#d)" fill="#0072ac"/><ellipse transform="rotate(-30.291 327.16 18.547)" cx="327.2" cy="18.5" rx="48.6" ry="60.1" clip-path="url(#d)" fill="#0073ad"/><ellipse transform="rotate(-30.291 327.16 18.547)" cx="327.2" cy="18.5" rx="46.5" ry="57.5" clip-path="url(#d)" fill="#0074ae"/><ellipse transform="rotate(-30.291 327.16 18.547)" cx="327.2" cy="18.5" rx="44.4" ry="54.9" clip-path="url(#d)" fill="#0075af"/><ellipse transform="rotate(-30.291 327.16 18.547)" cx="327.2" cy="18.5" rx="42.3" ry="52.3" clip-path="url(#d)" fill="#0076b1"/><ellipse transform="rotate(-30.291 327.16 18.547)" cx="327.2" cy="18.5" rx="40.2" ry="49.7" clip-path="url(#d)" fill="#0077b2"/><ellipse transform="rotate(-30.291 327.16 18.547)" cx="327.2" cy="18.5" rx="38.1" ry="47" clip-path="url(#d)" fill="#0078b3"/><ellipse transform="rotate(-30.291 327.16 18.547)" cx="327.2" cy="18.5" rx="36" ry="44.4" clip-path="url(#d)" fill="#0079b4"/><ellipse transform="rotate(-30.291 327.16 18.547)" cx="327.2" cy="18.5" rx="33.8" ry="41.8" clip-path="url(#d)" fill="#007ab5"/><ellipse transform="rotate(-30.291 327.16 18.547)" cx="327.2" cy="18.5" rx="31.7" ry="39.2" clip-path="url(#d)" fill="#007bb7"/><ellipse transform="rotate(-30.291 327.16 18.547)" cx="327.2" cy="18.5" rx="29.6" ry="36.6" clip-path="url(#d)" fill="#007cb8"/><ellipse transform="rotate(-30.291 327.16 18.547)" cx="327.2" cy="18.5" rx="27.5" ry="34" clip-path="url(#d)" fill="#007db9"/><ellipse transform="rotate(-30.291 327.16 18.547)" cx="327.2" cy="18.5" rx="25.4" ry="31.4" clip-path="url(#d)" fill="#007eba"/><ellipse transform="rotate(-30.291 327.16 18.547)" cx="327.2" cy="18.5" rx="23.3" ry="28.7" clip-path="url(#d)" fill="#007fbc"/><ellipse transform="rotate(-30.291 327.16 18.547)" cx="327.2" cy="18.5" rx="21.2" ry="26.1" clip-path="url(#d)" fill="#0080bd"/><ellipse transform="rotate(-30.291 327.16 18.547)" cx="327.2" cy="18.5" rx="19" ry="23.5" clip-path="url(#d)" fill="#0081be"/><ellipse transform="rotate(-30.291 327.16 18.547)" cx="327.2" cy="18.5" rx="16.9" ry="20.9" clip-path="url(#d)" fill="#0082bf"/><ellipse transform="rotate(-30.291 327.16 18.547)" cx="327.2" cy="18.5" rx="14.8" ry="18.3" clip-path="url(#d)" fill="#0083c1"/><ellipse transform="rotate(-30.291 327.16 18.547)" cx="327.2" cy="18.5" rx="12.7" ry="15.7" clip-path="url(#d)" fill="#0084c2"/><ellipse transform="rotate(-30.291 327.16 18.547)" cx="327.2" cy="18.5" rx="10.6" ry="13.1" clip-path="url(#d)" fill="#0085c3"/><ellipse transform="rotate(-30.291 327.16 18.547)" cx="327.2" cy="18.5" rx="8.5" ry="10.5" clip-path="url(#d)" fill="#0086c4"/><ellipse transform="rotate(-30.291 327.16 18.547)" cx="327.2" cy="18.5" rx="6.3" ry="7.8" clip-path="url(#d)" fill="#0087c5"/><ellipse transform="rotate(-30.291 327.16 18.547)" cx="327.2" cy="18.5" rx="4.2" ry="5.2" clip-path="url(#d)" fill="#0088c7"/><ellipse transform="rotate(-30.291 327.16 18.547)" cx="327.2" cy="18.5" rx="2.1" ry="2.6" clip-path="url(#d)" fill="#0089c8"/></g><path d="M55.4 115.9h15l14.4-75.8s19.9-4.7 19.9 14.4-20.2 17.4-20.2 17.4l-1.4 9.9s34.8 2.9 37.6-28.1c2.5-27.4-28.8-24.9-28.8-24.9H71.4l-16 87.1zm225 0L297 28.8h-15.4l-16 87.1s-3.6 13-10.9 13l-1.2 10.3c-.1 0 21.1 1 26.9-23.3M133.3 54.1l-12 61.8h14.9l11.3-61.8zm18.1-16.9c1.5-4.9-.8-9.9-5.2-11.3-4.4-1.4-9.2 1.5-10.7 6.3s.8 9.9 5.2 11.3c4.4 1.3 9.2-1.4 10.7-6.3m17.1 67.7l14.2-76h-15.4l-15.9 87h46l1.8-11zm75.6-52.4c-15.4 0-38.3 12.1-38.3 41.2 0 0-.6 23.4 23.1 23.4 13.7 0 25.1-7.4 25.1-7.4l-3.5-7.5s-6.9 5.2-17.1 5.2c-10.2 0-12.3-7.7-12.3-13.2l.1-5.1s39.8 3.5 40.6-21.8c-.1.1.6-14.8-17.7-14.8m5.2 16.1c-.7 2.8-2.8 13.7-26.6 12.1 0 0 3.7-20 20.1-20 6.5 0 7 5.4 6.5 7.9m85.6-16.1c-15.4 0-38.2 12.1-38.2 41.2 0 0-.6 23.4 23 23.4 13.7 0 25.1-7.4 25.1-7.4l-3.4-7.5s-6.9 5.2-17.1 5.2S312 99.7 312 94.2l.1-5.1s39.8 3.5 40.6-21.8c-.2.1.6-14.8-17.8-14.8m5.2 16.1c-.6 2.8-2.8 13.7-26.6 12.1 0 0 3.7-20 20.1-20 6.5 0 7 5.4 6.5 7.9" clip-path="url(#b)" fill="#fff"/><path d="M52.7 129h3l-2 10.4h7l-.4 2.3h-10l2.4-12.7zm21.2 0h3.3l2.6 12.7h-3.2l-.4-2.6H71l-1.5 2.6h-3.1l7.5-12.7zm-1.6 7.9h3.6l-.8-5-2.8 5zm27.3-6.6c.3.5.4 1.2.3 1.9-.1.8-.5 1.4-1 1.9-.3.3-.7.5-1.2.7.7.2 1.2.6 1.4 1.1.3.5.3 1.1.2 1.9-.1.8-.5 1.4-1 2-.3.4-.7.7-1.2 1-.5.3-1.1.5-1.7.6s-1.3.2-2 .2H87l2.4-12.7h6.9c1.6.1 2.8.5 3.3 1.4zm-8.8 5.8l-.6 3.4h3.5c.6 0 1.1-.1 1.5-.2.7-.3 1.1-.8 1.2-1.6.1-.7-.1-1.1-.7-1.4-.3-.1-.8-.2-1.4-.2h-3.5zm.9-4.9l-.5 2.8h3.5c.6 0 1.1-.1 1.6-.3.4-.2.7-.6.8-1.1.1-.6-.1-1-.5-1.2-.4-.1-1-.2-1.7-.2h-3.2zm25.7 9.4c-1.2 1-2.9 1.5-4.9 1.5-2 0-3.5-.5-4.4-1.5-1.2-1.2-1.6-3-1.2-5.2.4-2.3 1.5-4.1 3.1-5.2 1.2-1 2.9-1.5 4.9-1.5 2 0 3.5.5 4.4 1.5 1.2 1.2 1.6 2.9 1.2 5.2-.4 2.2-1.5 3.9-3.1 5.2zm.1-5.3c.3-1.4.1-2.5-.4-3.3-.5-.8-1.4-1.2-2.6-1.2s-2.2.4-3 1.2c-.8.8-1.4 1.9-1.7 3.3-.3 1.4-.1 2.5.4 3.3.5.8 1.4 1.2 2.6 1.2s2.2-.4 3-1.2c.9-.8 1.5-1.9 1.7-3.3zm22-5.1c.2.3.4.7.5 1.1.1.4.1.8 0 1.3-.1.6-.4 1.2-.8 1.8-.4.6-1.1 1-1.9 1.2.6.2 1 .6 1.2 1 .2.4.2 1.1 0 2l-.2.9c-.1.6-.2 1-.1 1.2 0 .3.1.6.4.7l-.1.3h-3.3c0-.3-.1-.5-.1-.7 0-.4 0-.7.1-1.1l.2-1.2c.1-.8.1-1.4-.2-1.6s-.8-.4-1.7-.4h-3.1l-.9 5h-2.9L129 129h6.9c1 0 1.7.1 2.2.3.7.2 1.1.5 1.4.9zm-7.8 1l-.6 3.4h3.3c.7 0 1.2-.1 1.5-.2.6-.2 1-.7 1.2-1.4.1-.8 0-1.3-.6-1.6-.3-.1-.8-.2-1.4-.2h-3.4zm20.9-2.2h3.3l2.6 12.7h-3.2l-.4-2.6h-5.2l-1.5 2.6h-3.1l7.5-12.7zm-1.7 7.9h3.6l-.8-5-2.8 5zm25.8-7.9l-.4 2.3h-4.2l-2 10.5h-3l2-10.5h-4.2l.4-2.3h11.4zm15.3 11.6c-1.2 1-2.9 1.5-4.9 1.5-2 0-3.5-.5-4.4-1.5-1.2-1.2-1.6-3-1.2-5.2.4-2.3 1.5-4.1 3.1-5.2 1.2-1 2.9-1.5 4.9-1.5 2 0 3.5.5 4.4 1.5 1.2 1.2 1.6 2.9 1.2 5.2-.4 2.2-1.4 3.9-3.1 5.2zm.2-5.3c.3-1.4.1-2.5-.4-3.3-.5-.8-1.4-1.2-2.6-1.2s-2.2.4-3 1.2c-.8.8-1.4 1.9-1.7 3.3-.3 1.4-.1 2.5.4 3.3.5.8 1.4 1.2 2.6 1.2s2.2-.4 3-1.2c.9-.8 1.4-1.9 1.7-3.3zm11.9 6.4h-2.9l2.4-12.7h2.9l-2.4 12.7zm20.8-11.5c.2.3.4.7.5 1.1.1.4.1.8 0 1.3-.1.6-.4 1.2-.8 1.8-.4.6-1.1 1-1.9 1.2.6.2 1 .6 1.2 1 .2.4.2 1.1 0 2l-.2.9c-.1.6-.2 1-.1 1.2 0 .3.1.6.4.7l-.1.3h-3.3c0-.3-.1-.5-.1-.7 0-.4 0-.7.1-1.1l.2-1.2c.1-.8.1-1.4-.2-1.6s-.8-.4-1.7-.4h-3l-.9 5h-2.9l2.4-12.7h6.9c1 0 1.7.1 2.2.3.6.2 1 .5 1.3.9zm-7.9 1l-.6 3.4h3.3c.7 0 1.2-.1 1.5-.2.6-.2 1-.7 1.2-1.4.1-.8 0-1.3-.6-1.6-.3-.1-.8-.2-1.4-.2H217zm26.9 0h-7.5l-.5 2.7h6.9l-.4 2.2h-6.9l-.6 3.3h7.8l-.4 2.3h-10.7L234 129h10.4l-.5 2.2z" fill="#fff"/></svg>