<svg xmlns="http://www.w3.org/2000/svg" xml:space="preserve" style="fill-rule:evenodd;clip-rule:evenodd;stroke-linejoin:round;stroke-miterlimit:2" viewBox="0 0 2267 893"><path d="M104.75 247.125h196.542c68.583 0 78.833 34.458 70.333 80.583l-3.667 20.125c-6.458 35.083-29.125 75.375-80.125 75.375H144.541l-10.833 59.125H61.583zm50.458 117.625h112.167c16.875 0 25.417-11.042 27.958-25.042l1.667-9.083c2.917-15.917-3.208-25-25-25H166.083zM418.625 247.125h217.667c55.542 0 65.417 27.625 57.667 69.875l-2.75 14.917c-5.792 31.5-16.333 50.042-50.917 57.833l-.125.625c20.75 3.917 36.875 13.333 29.792 52l-7.333 39.958h-72.125l5.167-28.25c4.542-24.667-1.125-32.792-23.542-32.792H458.751l-11.208 61.083h-72.125l43.167-235.208.042-.042Zm50.917 115.667h119.25c19.5 0 28.042-7.792 31.167-24.667l1.417-7.792c3.792-20.792-5.875-24.708-28.625-24.708H480.043l-10.5 57.167ZM746.5 247.125h252.25l-10.042 54.583H808.583l-6.917 37.667h170.333l-8.958 48.75H792.708l-6.917 37.708h184.333l-10.375 56.542H703.291l43.167-235.208zM1020 329.667c12.625-68.875 54.25-85.125 119.25-85.125h84.792c102.667 0 111.917 22.083 99.083 88.708H1251l1.208-6.5c3.083-16.875-8.333-21.75-29.833-21.75h-78.625c-38.042 0-48.417 17.875-53.792 47.125l-4.667 25.333c-6.25 34.083-1.5 47.125 32.625 47.125h77c32.5 0 42.833-3.25 48.208-32.5h72.125l-4.083 22.083c-7.25 39.625-27.292 70.833-99.708 70.833h-116.333c-64.958 0-100.625-16.25-88-85.125L1020 329.707v-.042ZM1389.208 247.125h72.167l-43.208 235.208h-72.083l43.167-235.208zM1618.292 247.125h93.875l86.125 235.208h-80.25l-14.792-41.583h-146.167l-28.75 41.583h-80.583zm-24.917 142.958h92.25l-30.583-88.375zM585.75 524.375H691l51.083 143.833 103.875-143.833h105.208l-41 223.458h-66.667l29.417-160.5h-.583l-119.292 160.5h-51.208l-60.375-160.5h-.583l-29.458 160.5H544.75zM978.208 602.792c12-65.458 51.583-80.875 113.292-80.875h109.875c61.75 0 95.625 15.417 83.625 80.875l-12.208 66.667c-12 65.417-51.583 80.833-113.292 80.833h-109.875c-61.75 0-95.625-15.417-83.625-80.833zm62.042 45.333c-5.917 32.417-1.417 44.75 31 44.75h87.667c32.417 0 41.458-12.333 47.417-44.75l4.417-24.083c5.083-27.75 1.417-44.75-34.708-44.75h-80.25c-36.083 0-46.042 17-51.125 44.75zM1340.75 524.375h68.5l-30.458 166.042h108.833l-10.542 57.417H1299.75l41.042-223.458h-.042ZM1549.792 524.375h244.458l-9.5 51.833h-175.917L1602.291 612h166.667l-8.5 46.292h-166.667l-6.542 35.792h179.917l-9.833 53.708h-248.458l41-223.458-.083.042ZM1830.583 524.375h106.208l98.917 162.333h.625l29.792-162.333h68.5l-41 223.458h-106.167L1888.541 585.5h-.625l-29.792 162.333h-68.542zM2149.875 524.375h48.583v7.083h-20.292v53.917h-8.042v-53.917h-20.25zm58.875 0h11.5l17.708 51.708 17.125-51.708h11.667v61h-7.667v-49.208l-16.708 49.208h-8.5l-17.042-49.208v49.208h-8.042v-61z" style="fill:#3e3d40;fill-rule:nonzero"/><path d="m1212.667 0 217.292 215.917L1703.667 0zm141.375 52.667h186.417l-103.917 82zM80.042 868.042l-3.333 22.208H.001l10.958-85.458h74.917l-2.5 22.458H36.209l-1.25 10.25h39.125l-2.5 19.125H32.459L31.001 868h49.042v.042ZM197 804.833l-49.25 85.458h-28.583L91.75 804.833h31.083l13.458 54.583c.292 1.5.75 3.083.958 4.542h.208c.5-1.375 1.167-2.75 1.875-4.083l27.958-55.042h29.75-.042ZM273.458 868.042l-3.333 22.208h-76.667l10.958-85.458h74.917l-2.5 22.458h-47.167l-1.25 10.25h39.125l-2.5 19.125h-39.125L224.458 868H273.5zM336.625 804.833c24 0 36.917 8.667 36.917 24.625 0 12.292-7.708 24.833-20.042 28.833l20.25 32h-33.792l-12.208-26.208h-13.125l-3.333 26.208h-28.167l10.958-85.458h42.583-.042ZM317 845.25h13.167c8.542 0 13.458-2.833 13.458-12.542 0-5.125-3.042-7.083-10.75-7.083H319.5l-2.5 19.583zM408.833 804.833l14.083 29.042c.75 1.5 1.583 2.958 2.083 4.667h.208c.625-1.25 2.417-3.542 2.833-4l22-29.75h31.208l-45.083 56.958-3.667 28.5H403.79l3.667-28.5-31.083-56.958h32.458v.042ZM588.5 808.25 582.458 830c-10-2.833-19.708-4.542-27.75-4.542-11.875 0-13.875 2.75-13.875 5.375 0 7.958 44.25-.125 44.25 27.917 0 20.167-18.792 33.25-44.667 33.25-12.833 0-24.208-2.625-33.708-7.292l5.958-22.792c10 5.25 20.458 8.333 31.5 8.333 9.375 0 13.667-2.292 13.667-5.792 0-7.417-44.25-.583-44.25-28.25 0-16.5 12.5-32.917 43.625-32.917 10.125 0 22.625 1.917 31.292 5v-.042ZM604.875 804.833h28.708l-10.958 85.458h-28.708zM711.208 890.292l-39.417-47.5-.208.125c-.125 1.5-.208 3.208-.417 4.667l-5.417 42.708h-25.542l10.958-85.458h22.75l35.583 44.542.208-.125c0-1.5.083-3.083.333-4.542l5.125-39.875h25.542l-10.958 85.458h-18.542ZM826.292 887.542c-8.458 2.625-21.167 4.542-31.625 4.542-33.792 0-47.458-14.458-47.458-36.333 0-30.208 18.375-52.625 58.75-52.625 10.333 0 21.375 1.375 29.75 4l-5.542 22.667c-7.625-2.5-17.333-4-25.792-4-19.708 0-24.917 6.167-26.917 21.625-.333 2.375-.542 4.667-.542 6.625 0 10.917 5.125 15.25 19.833 15.25 2.5 0 5.125-.208 7.417-.667l3.042-23.458h24.5l-5.417 42.375ZM914.667 867.042l-3.333 23.25h-70.833l10.958-85.458h28.167l-8.042 62.208zM1002.208 868.042l-3.333 22.208h-76.667l10.958-85.458h74.917l-2.5 22.458h-47.167l-1.25 10.25h39.125l-2.5 19.125h-39.125L953.208 868h49.042zM1123.792 887.542c-8.458 2.625-21.167 4.542-31.625 4.542-33.792 0-47.458-14.458-47.458-36.333 0-30.208 18.375-52.625 58.75-52.625 10.333 0 21.375 1.375 29.75 4l-5.542 22.667c-7.625-2.5-17.333-4-25.75-4-19.708 0-24.917 6.167-26.917 21.625-.333 2.375-.5 4.667-.5 6.625 0 10.917 5.125 15.25 19.833 15.25 2.5 0 5.125-.208 7.417-.667l3.042-23.458h24.5l-5.417 42.375h-.083ZM1191.5 804.833c24 0 36.917 8.667 36.917 24.625 0 12.292-7.708 24.833-20.042 28.833l20.25 32h-33.792l-12.208-26.208h-13.167l-3.333 26.208h-28.167l10.958-85.458zm-19.625 40.417h13.167c8.542 0 13.458-2.833 13.458-12.542 0-5.125-3.042-7.083-10.75-7.083h-13.375l-2.5 19.583z" style="fill:#e64442;fill-rule:nonzero"/><path d="M1301.375 876.125h-36.708l-7.083 14.125h-30.167l49.542-85.458h31.292l28.375 85.458h-31.917zm-10.667-45.333c-.333-1.5-.75-3.083-.958-4.542h-.208c-.542 1.375-1.25 2.75-1.875 4.083l-12.708 25.167h21.5zM1385.667 804.833l18.792 50.375a88 88 0 0 1 1.458 4.333h.208c.625-1.25 1.458-2.625 2.292-3.875l32.333-50.792h29.75l-10.958 85.458H1434l5.417-42.625c.208-1.5.75-4.083 1.042-5.583l-.208-.125-29.333 48.292h-18.583l-16.5-48.208h-.208c-.125 1.458-.208 3.208-.417 4.667l-5.542 43.542h-25.458l10.958-85.458h30.5ZM1591.458 807l-5.75 22.208c-5.958-1.833-12.708-3.083-21.375-3.083-18.375 0-23.375 6.042-25.333 21.292-.333 2.5-.5 4.917-.5 6.958 0 10.917 5.125 14.917 20.25 14.917 7.917 0 15.667-1.5 22.208-4.083l.708 20.375c-8.958 3.875-19.5 6.375-29.417 6.375-28.583 0-43.5-13.792-43.5-36.917 0-29.167 18.875-51.958 57.917-51.958 9.167 0 18.167 1.583 24.833 3.875l-.042.042ZM1635.375 892c-31.292 0-43.917-15.625-43.917-36.792 0-28.5 17.333-51.833 55.417-51.833 31.292 0 43.917 15.375 43.917 36.458 0 2.5-.208 5.125-.5 7.75-3.125 24.833-19.833 44.417-54.875 44.417zm25.667-51.417c0-10.25-4.5-14.583-17.125-14.583-14.625 0-20.25 6.25-22.208 21.417-.333 2.292-.417 4.458-.417 6.375 0 10.708 4.583 15.5 17 15.5 14.708 0 20.333-6.708 22.208-21.875.333-2.5.5-4.792.5-6.833h.042ZM1789.708 853.583c-3.333 25.625-19.625 38.5-49.125 38.5-26.5 0-40.375-10.5-40.375-31.333 0-2.292.208-4.667.5-7.167l6.25-48.75h28.167l-6.375 49a28 28 0 0 0-.208 3.208c0 8.083 4.5 12.083 15.042 12.083 11.792 0 16.708-4.917 18.042-15.25l6.375-49h27.958l-6.25 48.75v-.042ZM1870.958 890.292l-39.417-47.5-.208.125c-.125 1.5-.208 3.208-.417 4.667l-5.417 42.708h-25.542l10.958-85.458h22.75l35.583 44.542.208-.125c0-1.5.083-3.083.333-4.542l5.125-39.875h25.542l-10.958 85.458h-18.542ZM1962.583 828.083l-7.917 62.208h-28.292l7.917-62.208h-27.333l3.667-23.25h81.917l-2.417 23.25zM2069.667 808.25l-6.042 21.75c-10-2.833-19.708-4.542-27.75-4.542-11.875 0-13.875 2.75-13.875 5.375 0 7.958 44.25-.125 44.25 27.917 0 20.167-18.792 33.25-44.667 33.25-12.833 0-24.208-2.625-33.708-7.292l5.958-22.792c10 5.25 20.458 8.333 31.5 8.333 9.375 0 13.667-2.292 13.667-5.792 0-7.417-44.25-.583-44.25-28.25 0-16.5 12.5-32.917 43.625-32.917 10.125 0 22.625 1.917 31.292 5v-.042Z" style="fill:#e64442;fill-rule:nonzero"/></svg>