<?xml version="1.0" encoding="utf-8"?>
<!-- Generator: Adobe Illustrator 19.1.1, SVG Export Plug-In . SVG Version: 6.00 Build 0)  -->
<svg version="1.0" id="Calque_1" xmlns="http://www.w3.org/2000/svg" xmlns:xlink="http://www.w3.org/1999/xlink" x="0px" y="0px"
	 viewBox="0 0 1100 1100" enable-background="new 0 0 1100 1100" xml:space="preserve">
<circle fill="none" stroke="#FFF" stroke-width="40" stroke-miterlimit="10" cx="549.9" cy="549.9" r="500"/>
<path fill="none" stroke="#FFF" stroke-width="18" stroke-miterlimit="10" d="M527.5,422.7c0,0,29.3,96,53.8,0.4"/>
<path fill="none" stroke="#FFF" stroke-width="40" stroke-miterlimit="10" d="M214.8,503c0,0,27.8-121.4,192-226.7
	c6-3.9,12.2-7.7,18.6-11.5"/>
<path fill="none" stroke="#FFF" stroke-width="40" stroke-miterlimit="10" d="M555,453.2C400.5,262.5,400.5,262.5,400.5,262.5"/>
<path fill="none" stroke="#FFF" stroke-width="40" stroke-miterlimit="10" d="M197,583h696.8c0,0-22.6,219.8-347.3,219.8"/>
<path fill="none" stroke="#FFF" stroke-width="40" stroke-miterlimit="10" d="M896.7,503c0,0-27.8-121.4-192-226.7
	c-6-3.9-12.2-7.7-18.6-11.5"/>
<path fill="none" stroke="#FFF" stroke-width="40" stroke-miterlimit="10" d="M554.7,456.2C709.5,265,709.5,265,709.5,265"/>
</svg>